{
  "source": "C:\\Users\\Peter\\Desktop\\stuff\\MIUN\\quantitative_research\\video_compression\\videos\\BVI-HD\\BVI-HD_CDVL_videos\\ORIG\\Hamster_1920x1080_60fps.mp4",
  "output": "C:\\Users\\Peter\\Desktop\\stuff\\MIUN\\quantitative_research\\video_compression\\compressed_videos\\BVI-HD\\hevc\\2.5\\Hamster_1920x1080_60fps_hevc.mp4",
  "codec": "hevc",
  "ok": "Input #0, mov,mp4,m4a,3gp,3g2,mj2, from 'C:\\Users\\Peter\\Desktop\\stuff\\MIUN\\quantitative_research\\video_compression\\videos\\BVI-HD\\BVI-HD_CDVL_videos\\ORIG\\Hamster_1920x1080_60fps.mp4':\n  Metadata:\n    major_brand     : isom\n    minor_version   : 512\n    compatible_brands: isomiso2avc1mp41\n    encoder         : Lavf54.28.101\n  Duration: 00:00:05.00, start: 0.000000, bitrate: 208485 kb/s\n  Stream #0:0[0x1](und): Video: h264 (High 4:4:4 Predictive) (avc1 / 0x31637661), yuv420p(progressive), 1920x1080, 208481 kb/s, 60 fps, 60 tbr, 60 tbn (default)\n    Metadata:\n      handler_name    : VideoHandler\n      vendor_id       : [0][0][0][0]\n[out#0/mp4 @ 0000015de262e040] Codec AVOption b:a (set bitrate (in bits/s)) has not been used for any stream. The most likely reason is either wrong type (e.g. a video option with no video streams) or that it is a private option of some decoder which was not actually used for any stream.\nStream mapping:\n  Stream #0:0 -> #0:0 (h264 (native) -> hevc (libx265))\nPress [q] to stop, [?] for help\n[libx265 @ 0000015de1d3c740] Unknown option: \"aq-mode.\nx265 [info]: HEVC encoder version 4.1+190-8f11c33ac\nx265 [info]: build info [Windows][GCC 15.1.0][64 bit] 10bit\nx265 [info]: using cpu capabilities: MMX2 SSE2Fast LZCNT SSSE3 SSE4.2 AVX FMA3 BMI2 AVX2\nx265 [info]: Main 10 profile, Level-4.1 (Main tier)\nx265 [info]: Thread pool created using 12 threads\nx265 [info]: Slices                              : 1\nx265 [info]: frame threads / pool features       : 3 / wpp(17 rows)\nx265 [info]: Coding QT: max CU size, min CU size : 64 / 8\nx265 [info]: Residual QT: max TU size, max depth : 32 / 1 inter / 1 intra\nx265 [info]: ME / range / subpel / merge         : star / 57 / 3 / 3\nx265 [info]: Keyframe min / max / scenecut / bias  : 25 / 250 / 40 / 5.00 \nx265 [info]: Lookahead / bframes / badapt        : 25 / 4 / 2\nx265 [info]: b-pyramid / weightp / weightb       : 1 / 1 / 0\nx265 [info]: References / ref-limit  cu / depth  : 4 / on / on\nx265 [info]: AQ: mode / str / qg-size / cu-tree  : 2 / 1.0 / 32 / 1\nx265 [info]: Rate Control / qCompress            : ABR-2500 kbps / 0.60\nx265 [info]: VBV/HRD buffer / max-rate / init    : 2500 / 2500 / 0.750\nx265 [info]: tools: rect limit-modes rd=4 psy-rd=2.00 rdoq=2 psy-rdoq=1.00\nx265 [info]: tools: rskip mode=1 signhide tmvp strong-intra-smoothing lslices=4\nx265 [info]: tools: deblock sao dhdr10-info\nOutput #0, mp4, to 'C:\\Users\\Peter\\Desktop\\stuff\\MIUN\\quantitative_research\\video_compression\\compressed_videos\\BVI-HD\\hevc\\2.5\\Hamster_1920x1080_60fps_hevc.mp4':\n  Metadata:\n    major_brand     : isom\n    minor_version   : 512\n    compatible_brands: isomiso2avc1mp41\n    encoder         : Lavf62.3.100\n  Stream #0:0(und): Video: hevc (hev1 / 0x31766568), yuv420p10le(tv, progressive), 1920x1080, q=2-31, 2500 kb/s, 60 fps, 15360 tbn (default)\n    Metadata:\n      encoder         : Lavc62.11.100 libx265\n      handler_name    : VideoHandler\n      vendor_id       : [0][0][0][0]\n    Side data:\n      cpb: bitrate max/min/avg: 2500000/0/2500000 buffer size: 2500000 vbv_delay: N/A\nframe=    0 fps=0.0 q=0.0 size=       0KiB time=N/A bitrate=N/A speed=N/A elapsed=0:00:03.97    \nframe=    0 fps=0.0 q=0.0 size=       0KiB time=N/A bitrate=N/A speed=N/A elapsed=0:00:04.71    \nframe=    0 fps=0.0 q=0.0 size=       0KiB time=N/A bitrate=N/A speed=N/A elapsed=0:00:05.41    \nframe=    0 fps=0.0 q=0.0 size=       0KiB time=N/A bitrate=N/A speed=N/A elapsed=0:00:06.12    \nframe=    0 fps=0.0 q=0.0 size=       0KiB time=N/A bitrate=N/A speed=N/A elapsed=0:00:06.78    \nframe=    0 fps=0.0 q=0.0 size=       0KiB time=N/A bitrate=N/A speed=N/A elapsed=0:00:07.35    \nframe=    0 fps=0.0 q=0.0 size=       0KiB time=N/A bitrate=N/A speed=N/A elapsed=0:00:07.88    \nframe=    0 fps=0.0 q=0.0 size=       0KiB time=N/A bitrate=N/A speed=N/A elapsed=0:00:08.40    \nframe=    0 fps=0.0 q=0.0 size=       0KiB time=N/A bitrate=N/A speed=N/A elapsed=0:00:09.12    \nframe=    0 fps=0.0 q=0.0 size=       0KiB time=N/A bitrate=N/A speed=N/A elapsed=0:00:09.73    \nframe=    0 fps=0.0 q=0.0 size=       0KiB time=N/A bitrate=N/A speed=N/A elapsed=0:00:10.41    \nframe=    0 fps=0.0 q=0.0 size=       0KiB time=N/A bitrate=N/A speed=N/A elapsed=0:00:11.02    \nframe=    0 fps=0.0 q=0.0 size=       0KiB time=N/A bitrate=N/A speed=N/A elapsed=0:00:11.65    \nframe=    0 fps=0.0 q=0.0 size=       0KiB time=N/A bitrate=N/A speed=N/A elapsed=0:00:12.20    \nframe=    0 fps=0.0 q=0.0 size=       0KiB time=N/A bitrate=N/A speed=N/A elapsed=0:00:12.79    \nframe=    0 fps=0.0 q=0.0 size=       0KiB time=N/A bitrate=N/A speed=N/A elapsed=0:00:13.49    \nframe=    0 fps=0.0 q=0.0 size=       0KiB time=N/A bitrate=N/A speed=N/A elapsed=0:00:14.17    \nframe=    0 fps=0.0 q=0.0 size=       0KiB time=N/A bitrate=N/A speed=N/A elapsed=0:00:14.72    \nframe=    2 fps=0.1 q=39.5 size=       0KiB time=-00:00:00.01 bitrate=N/A speed=N/A elapsed=0:00:15.35    \nframe=    3 fps=0.2 q=41.2 size=       0KiB time=00:00:00.01 bitrate=  21.1kbits/s speed=0.00104x elapsed=0:00:16.02    \nframe=    4 fps=0.2 q=41.5 size=       0KiB time=00:00:00.03 bitrate=  10.6kbits/s speed=0.002x elapsed=0:00:16.65    \nframe=    5 fps=0.3 q=40.0 size=       0KiB time=00:00:00.05 bitrate=   7.0kbits/s speed=0.0029x elapsed=0:00:17.22    \nframe=    5 fps=0.3 q=40.0 size=       0KiB time=00:00:00.05 bitrate=   7.0kbits/s speed=0.0028x elapsed=0:00:17.88    \nframe=    5 fps=0.3 q=40.0 size=       0KiB time=00:00:00.05 bitrate=   7.0kbits/s speed=0.0027x elapsed=0:00:18.48    \nframe=    5 fps=0.3 q=40.0 size=       0KiB time=00:00:00.05 bitrate=   7.0kbits/s speed=0.00261x elapsed=0:00:19.17    \nframe=    5 fps=0.3 q=40.0 size=       0KiB time=00:00:00.05 bitrate=   7.0kbits/s speed=0.00253x elapsed=0:00:19.73    \nframe=    6 fps=0.3 q=35.3 size=       0KiB time=00:00:00.06 bitrate=   5.3kbits/s speed=0.00328x elapsed=0:00:20.30    \nframe=    7 fps=0.3 q=37.9 size=       0KiB time=00:00:00.08 bitrate=   4.2kbits/s speed=0.004x elapsed=0:00:20.84    \nframe=    8 fps=0.4 q=37.6 size=       0KiB time=00:00:00.10 bitrate=   3.5kbits/s speed=0.00463x elapsed=0:00:21.58    \nframe=    8 fps=0.4 q=37.6 size=       0KiB time=00:00:00.10 bitrate=   3.5kbits/s speed=0.00451x elapsed=0:00:22.19    \nframe=    8 fps=0.4 q=37.6 size=       0KiB time=00:00:00.10 bitrate=   3.5kbits/s speed=0.00439x elapsed=0:00:22.75    \nframe=    9 fps=0.4 q=37.8 size=       0KiB time=00:00:00.11 bitrate=   3.0kbits/s speed=0.00501x elapsed=0:00:23.27    \nframe=   10 fps=0.4 q=39.2 size=       0KiB time=00:00:00.13 bitrate=   2.6kbits/s speed=0.00559x elapsed=0:00:23.84    \nframe=   10 fps=0.4 q=39.2 size=       0KiB time=00:00:00.13 bitrate=   2.6kbits/s speed=0.00546x elapsed=0:00:24.42    \nframe=   10 fps=0.4 q=39.2 size=       0KiB time=00:00:00.13 bitrate=   2.6kbits/s speed=0.00532x elapsed=0:00:25.05    \nframe=   10 fps=0.4 q=39.2 size=       0KiB time=00:00:00.13 bitrate=   2.6kbits/s speed=0.00516x elapsed=0:00:25.85    \nframe=   11 fps=0.4 q=32.9 size=       0KiB time=00:00:00.15 bitrate=   2.3kbits/s speed=0.00564x elapsed=0:00:26.61    \nframe=   11 fps=0.4 q=32.9 size=       0KiB time=00:00:00.15 bitrate=   2.3kbits/s speed=0.00547x elapsed=0:00:27.42    \nframe=   11 fps=0.4 q=32.9 size=       0KiB time=00:00:00.15 bitrate=   2.3kbits/s speed=0.00533x elapsed=0:00:28.13    \nframe=   12 fps=0.4 q=37.1 size=       0KiB time=00:00:00.16 bitrate=   2.1kbits/s speed=0.00579x elapsed=0:00:28.79    \nframe=   12 fps=0.4 q=37.1 size=       0KiB time=00:00:00.16 bitrate=   2.1kbits/s speed=0.00567x elapsed=0:00:29.40    \nframe=   12 fps=0.4 q=37.1 size=       0KiB time=00:00:00.16 bitrate=   2.1kbits/s speed=0.00552x elapsed=0:00:30.20    \nframe=   12 fps=0.4 q=37.1 size=       0KiB time=00:00:00.16 bitrate=   2.1kbits/s speed=0.00539x elapsed=0:00:30.94    \nframe=   12 fps=0.4 q=37.1 size=       0KiB time=00:00:00.16 bitrate=   2.1kbits/s speed=0.00526x elapsed=0:00:31.69    \nframe=   12 fps=0.4 q=37.1 size=       0KiB time=00:00:00.16 bitrate=   2.1kbits/s speed=0.00515x elapsed=0:00:32.38    \nframe=   12 fps=0.4 q=37.1 size=       0KiB time=00:00:00.16 bitrate=   2.1kbits/s speed=0.00505x elapsed=0:00:32.97    \nframe=   13 fps=0.4 q=39.6 size=       0KiB time=00:00:00.18 bitrate=   1.9kbits/s speed=0.00547x elapsed=0:00:33.51    \nframe=   13 fps=0.4 q=39.6 size=       0KiB time=00:00:00.18 bitrate=   1.9kbits/s speed=0.00537x elapsed=0:00:34.12    \nframe=   15 fps=0.4 q=33.3 size=       0KiB time=00:00:00.21 bitrate=   1.6kbits/s speed=0.00625x elapsed=0:00:34.66    \nframe=   16 fps=0.5 q=34.6 size=       0KiB time=00:00:00.23 bitrate=   1.5kbits/s speed=0.00661x elapsed=0:00:35.31    \nframe=   17 fps=0.5 q=38.1 size=       0KiB time=00:00:00.23 bitrate=   1.5kbits/s speed=0.0065x elapsed=0:00:35.88    \nframe=   17 fps=0.5 q=38.1 size=       0KiB time=00:00:00.25 bitrate=   1.4kbits/s speed=0.00682x elapsed=0:00:36.66    \nframe=   17 fps=0.5 q=38.1 size=       0KiB time=00:00:00.25 bitrate=   1.4kbits/s speed=0.00671x elapsed=0:00:37.25    \nframe=   17 fps=0.4 q=38.1 size=       0KiB time=00:00:00.25 bitrate=   1.4kbits/s speed=0.00661x elapsed=0:00:37.84    \nframe=   17 fps=0.4 q=38.1 size=       0KiB time=00:00:00.25 bitrate=   1.4kbits/s speed=0.00651x elapsed=0:00:38.38    \nframe=   17 fps=0.4 q=38.1 size=       0KiB time=00:00:00.25 bitrate=   1.4kbits/s speed=0.00642x elapsed=0:00:38.92    \nframe=   18 fps=0.5 q=37.9 size=       0KiB time=00:00:00.26 bitrate=   1.3kbits/s speed=0.00676x elapsed=0:00:39.46    \nframe=   18 fps=0.4 q=37.9 size=       0KiB time=00:00:00.26 bitrate=   1.3kbits/s speed=0.00665x elapsed=0:00:40.09    \nframe=   18 fps=0.4 q=37.9 size=       0KiB time=00:00:00.26 bitrate=   1.3kbits/s speed=0.00655x elapsed=0:00:40.69    \nframe=   18 fps=0.4 q=37.9 size=       0KiB time=00:00:00.26 bitrate=   1.3kbits/s speed=0.00646x elapsed=0:00:41.26    \nframe=   18 fps=0.4 q=37.9 size=       0KiB time=00:00:00.26 bitrate=   1.3kbits/s speed=0.00636x elapsed=0:00:41.92    \nframe=   18 fps=0.4 q=37.9 size=       0KiB time=00:00:00.26 bitrate=   1.3kbits/s speed=0.00628x elapsed=0:00:42.46    \nframe=   19 fps=0.4 q=37.9 size=       0KiB time=00:00:00.28 bitrate=   1.2kbits/s speed=0.00657x elapsed=0:00:43.09    \nframe=   19 fps=0.4 q=37.9 size=       0KiB time=00:00:00.28 bitrate=   1.2kbits/s speed=0.00649x elapsed=0:00:43.66    \nframe=   19 fps=0.4 q=37.9 size=       0KiB time=00:00:00.28 bitrate=   1.2kbits/s speed=0.00641x elapsed=0:00:44.18    \nframe=   20 fps=0.4 q=33.1 size=       0KiB time=00:00:00.30 bitrate=   1.2kbits/s speed=0.00671x elapsed=0:00:44.71    \nframe=   21 fps=0.5 q=35.8 size=       0KiB time=00:00:00.31 bitrate=   1.1kbits/s speed=0.007x elapsed=0:00:45.25    \nframe=   21 fps=0.5 q=35.8 size=       0KiB time=00:00:00.31 bitrate=   1.1kbits/s speed=0.00691x elapsed=0:00:45.83    \nframe=   22 fps=0.5 q=38.0 size=       0KiB time=00:00:00.33 bitrate=   1.1kbits/s speed=0.00719x elapsed=0:00:46.37    \nframe=   22 fps=0.5 q=38.0 size=       0KiB time=00:00:00.33 bitrate=   1.1kbits/s speed=0.00709x elapsed=0:00:47.03    \nframe=   22 fps=0.5 q=38.0 size=       0KiB time=00:00:00.33 bitrate=   1.1kbits/s speed=0.00699x elapsed=0:00:47.65    \nframe=   22 fps=0.5 q=38.0 size=       0KiB time=00:00:00.33 bitrate=   1.1kbits/s speed=0.0069x elapsed=0:00:48.28    \nframe=   23 fps=0.5 q=37.7 size=       0KiB time=00:00:00.35 bitrate=   1.0kbits/s speed=0.00716x elapsed=0:00:48.86    \nframe=   25 fps=0.5 q=35.3 size=       0KiB time=00:00:00.36 bitrate=   1.0kbits/s speed=0.0074x elapsed=0:00:49.54    \nframe=   25 fps=0.5 q=35.3 size=       0KiB time=00:00:00.38 bitrate=   0.9kbits/s speed=0.00764x elapsed=0:00:50.19    \nframe=   25 fps=0.5 q=35.3 size=       0KiB time=00:00:00.38 bitrate=   0.9kbits/s speed=0.00755x elapsed=0:00:50.79    \nframe=   25 fps=0.5 q=35.3 size=       0KiB time=00:00:00.38 bitrate=   0.9kbits/s speed=0.00746x elapsed=0:00:51.36    \nframe=   25 fps=0.5 q=35.3 size=       0KiB time=00:00:00.38 bitrate=   0.9kbits/s speed=0.00738x elapsed=0:00:51.93    \nframe=   26 fps=0.5 q=37.1 size=       0KiB time=00:00:00.40 bitrate=   0.9kbits/s speed=0.00762x elapsed=0:00:52.51    \nframe=   26 fps=0.5 q=37.1 size=       0KiB time=00:00:00.40 bitrate=   0.9kbits/s speed=0.00753x elapsed=0:00:53.14    \nframe=   26 fps=0.5 q=37.1 size=       0KiB time=00:00:00.40 bitrate=   0.9kbits/s speed=0.00744x elapsed=0:00:53.75    \nframe=   26 fps=0.5 q=37.1 size=       0KiB time=00:00:00.40 bitrate=   0.9kbits/s speed=0.00737x elapsed=0:00:54.26    \nframe=   27 fps=0.5 q=37.0 size=       0KiB time=00:00:00.41 bitrate=   0.8kbits/s speed=0.0076x elapsed=0:00:54.79    \nframe=   27 fps=0.5 q=37.0 size=       0KiB time=00:00:00.41 bitrate=   0.8kbits/s speed=0.00753x elapsed=0:00:55.34    \nframe=   27 fps=0.5 q=37.0 size=       0KiB time=00:00:00.41 bitrate=   0.8kbits/s speed=0.00746x elapsed=0:00:55.87    \nframe=   28 fps=0.5 q=32.3 size=       0KiB time=00:00:00.43 bitrate=   0.8kbits/s speed=0.00767x elapsed=0:00:56.46    \nframe=   28 fps=0.5 q=32.3 size=       0KiB time=00:00:00.43 bitrate=   0.8kbits/s speed=0.00758x elapsed=0:00:57.17    \nframe=   28 fps=0.5 q=32.3 size=       0KiB time=00:00:00.43 bitrate=   0.8kbits/s speed=0.00749x elapsed=0:00:57.85    \nframe=   28 fps=0.5 q=32.3 size=       0KiB time=00:00:00.43 bitrate=   0.8kbits/s speed=0.00741x elapsed=0:00:58.51    \nframe=   29 fps=0.5 q=35.3 size=       0KiB time=00:00:00.45 bitrate=   0.8kbits/s speed=0.00762x elapsed=0:00:59.08    \nframe=   30 fps=0.5 q=37.1 size=       0KiB time=00:00:00.46 bitrate=   0.8kbits/s speed=0.00782x elapsed=0:00:59.70    \nframe=   30 fps=0.5 q=37.1 size=       0KiB time=00:00:00.46 bitrate=   0.8kbits/s speed=0.00774x elapsed=0:01:00.27    \nframe=   30 fps=0.5 q=37.1 size=       0KiB time=00:00:00.46 bitrate=   0.8kbits/s speed=0.00766x elapsed=0:01:00.89    \nframe=   31 fps=0.5 q=37.4 size=       0KiB time=00:00:00.48 bitrate=   0.7kbits/s speed=0.00786x elapsed=0:01:01.46    \nframe=   31 fps=0.5 q=37.4 size=       0KiB time=00:00:00.48 bitrate=   0.7kbits/s speed=0.00779x elapsed=0:01:02.05    \nframe=   31 fps=0.5 q=37.4 size=       0KiB time=00:00:00.48 bitrate=   0.7kbits/s speed=0.00772x elapsed=0:01:02.61    \nframe=   32 fps=0.5 q=32.2 size=       0KiB time=00:00:00.50 bitrate=   0.7kbits/s speed=0.00791x elapsed=0:01:03.19    \nframe=   33 fps=0.5 q=35.2 size=       0KiB time=00:00:00.51 bitrate=   0.7kbits/s speed=0.00809x elapsed=0:01:03.82    \nframe=   33 fps=0.5 q=35.2 size=       0KiB time=00:00:00.51 bitrate=   0.7kbits/s speed=0.00801x elapsed=0:01:04.46    \nframe=   33 fps=0.5 q=35.2 size=       0KiB time=00:00:00.51 bitrate=   0.7kbits/s speed=0.00794x elapsed=0:01:05.10    \nframe=   34 fps=0.5 q=37.7 size=       0KiB time=00:00:00.53 bitrate=   0.7kbits/s speed=0.00812x elapsed=0:01:05.67    \nframe=   34 fps=0.5 q=37.7 size=       0KiB time=00:00:00.53 bitrate=   0.7kbits/s speed=0.00804x elapsed=0:01:06.31    \nframe=   34 fps=0.5 q=37.7 size=       0KiB time=00:00:00.53 bitrate=   0.7kbits/s speed=0.00798x elapsed=0:01:06.86    \nframe=   35 fps=0.5 q=37.4 size=       0KiB time=00:00:00.55 bitrate=   0.6kbits/s speed=0.00816x elapsed=0:01:07.44    \nframe=   35 fps=0.5 q=37.4 size=       0KiB time=00:00:00.55 bitrate=   0.6kbits/s speed=0.00809x elapsed=0:01:08.01    \nframe=   36 fps=0.5 q=32.0 size=       0KiB time=00:00:00.56 bitrate=   0.6kbits/s speed=0.00825x elapsed=0:01:08.68    \nframe=   37 fps=0.5 q=35.4 size=       0KiB time=00:00:00.58 bitrate=   0.6kbits/s speed=0.00842x elapsed=0:01:09.29    \nframe=   38 fps=0.5 q=37.3 size=       0KiB time=00:00:00.60 bitrate=   0.6kbits/s speed=0.00858x elapsed=0:01:09.90    \nframe=   38 fps=0.5 q=37.3 size=       0KiB time=00:00:00.60 bitrate=   0.6kbits/s speed=0.00852x elapsed=0:01:10.43    \nframe=   39 fps=0.5 q=37.3 size=       0KiB time=00:00:00.61 bitrate=   0.6kbits/s speed=0.00868x elapsed=0:01:11.05    \nframe=   39 fps=0.5 q=37.3 size=       0KiB time=00:00:00.61 bitrate=   0.6kbits/s speed=0.0086x elapsed=0:01:11.70    \nframe=   39 fps=0.5 q=37.3 size=       0KiB time=00:00:00.61 bitrate=   0.6kbits/s speed=0.00853x elapsed=0:01:12.25    \nframe=   40 fps=0.5 q=32.0 size=       0KiB time=00:00:00.63 bitrate=   0.6kbits/s speed=0.0087x elapsed=0:01:12.82    \nframe=   41 fps=0.6 q=35.2 size=       0KiB time=00:00:00.63 bitrate=   0.6kbits/s speed=0.00863x elapsed=0:01:13.38    \nframe=   41 fps=0.6 q=35.2 size=       0KiB time=00:00:00.65 bitrate=   0.5kbits/s speed=0.00879x elapsed=0:01:13.95    \nframe=   42 fps=0.6 q=37.2 size=       0KiB time=00:00:00.66 bitrate=   0.5kbits/s speed=0.00893x elapsed=0:01:14.61    \nframe=   43 fps=0.6 q=37.2 size=       0KiB time=00:00:00.68 bitrate=   0.5kbits/s speed=0.00907x elapsed=0:01:15.33    \nframe=   44 fps=0.6 q=32.3 size=       0KiB time=00:00:00.70 bitrate=   0.5kbits/s speed=0.00923x elapsed=0:01:15.87    \nframe=   45 fps=0.6 q=36.0 size=       0KiB time=00:00:00.71 bitrate=   0.5kbits/s speed=0.00938x elapsed=0:01:16.42    \nframe=   46 fps=0.6 q=37.1 size=       0KiB time=00:00:00.73 bitrate=   0.5kbits/s speed=0.00953x elapsed=0:01:16.98    \nframe=   46 fps=0.6 q=37.1 size=       0KiB time=00:00:00.73 bitrate=   0.5kbits/s speed=0.00946x elapsed=0:01:17.52    \nframe=   46 fps=0.6 q=37.1 size=       0KiB time=00:00:00.73 bitrate=   0.5kbits/s speed=0.00939x elapsed=0:01:18.07    \nframe=   46 fps=0.6 q=37.1 size=       0KiB time=00:00:00.73 bitrate=   0.5kbits/s speed=0.00932x elapsed=0:01:18.66    \nframe=   46 fps=0.6 q=37.1 size=       0KiB time=00:00:00.73 bitrate=   0.5kbits/s speed=0.00925x elapsed=0:01:19.29    \nframe=   46 fps=0.6 q=37.1 size=       0KiB time=00:00:00.73 bitrate=   0.5kbits/s speed=0.00918x elapsed=0:01:19.92    \nframe=   47 fps=0.6 q=36.8 size=       0KiB time=00:00:00.75 bitrate=   0.5kbits/s speed=0.00931x elapsed=0:01:20.57    \nframe=   47 fps=0.6 q=36.8 size=       0KiB time=00:00:00.75 bitrate=   0.5kbits/s speed=0.00924x elapsed=0:01:21.18    \nframe=   47 fps=0.6 q=36.8 size=       0KiB time=00:00:00.75 bitrate=   0.5kbits/s speed=0.00917x elapsed=0:01:21.83    \nframe=   47 fps=0.6 q=36.8 size=       0KiB time=00:00:00.75 bitrate=   0.5kbits/s speed=0.0091x elapsed=0:01:22.41    \nframe=   47 fps=0.6 q=36.8 size=       0KiB time=00:00:00.75 bitrate=   0.5kbits/s speed=0.00903x elapsed=0:01:23.02    \nframe=   47 fps=0.6 q=36.8 size=       0KiB time=00:00:00.75 bitrate=   0.5kbits/s speed=0.00897x elapsed=0:01:23.61    \nframe=   48 fps=0.6 q=37.1 size=       0KiB time=00:00:00.76 bitrate=   0.5kbits/s speed=0.00911x elapsed=0:01:24.19    \nframe=   48 fps=0.6 q=37.1 size=       0KiB time=00:00:00.76 bitrate=   0.5kbits/s speed=0.00904x elapsed=0:01:24.76    \nframe=   48 fps=0.6 q=37.1 size=       0KiB time=00:00:00.76 bitrate=   0.5kbits/s speed=0.00898x elapsed=0:01:25.41    \nframe=   49 fps=0.6 q=31.8 size=       0KiB time=00:00:00.78 bitrate=   0.4kbits/s speed=0.00911x elapsed=0:01:25.94    \nframe=   50 fps=0.6 q=35.2 size=       0KiB time=00:00:00.80 bitrate=   0.4kbits/s speed=0.00925x elapsed=0:01:26.49    \nframe=   50 fps=0.6 q=35.2 size=       0KiB time=00:00:00.80 bitrate=   0.4kbits/s speed=0.00919x elapsed=0:01:27.02    \nframe=   50 fps=0.6 q=35.2 size=       0KiB time=00:00:00.80 bitrate=   0.4kbits/s speed=0.00913x elapsed=0:01:27.61    \nframe=   51 fps=0.6 q=37.3 size=       0KiB time=00:00:00.81 bitrate=   0.4kbits/s speed=0.00926x elapsed=0:01:28.16    \nframe=   51 fps=0.6 q=37.3 size=       0KiB time=00:00:00.81 bitrate=   0.4kbits/s speed=0.00921x elapsed=0:01:28.70    \nframe=   51 fps=0.6 q=37.3 size=       0KiB time=00:00:00.81 bitrate=   0.4kbits/s speed=0.00914x elapsed=0:01:29.35    \nframe=   52 fps=0.6 q=37.4 size=       0KiB time=00:00:00.81 bitrate=   0.4kbits/s speed=0.00908x elapsed=0:01:29.92    \nframe=   54 fps=0.6 q=35.5 size=       0KiB time=00:00:00.85 bitrate=   0.4kbits/s speed=0.00938x elapsed=0:01:30.62    \nframe=   54 fps=0.6 q=35.5 size=       0KiB time=00:00:00.86 bitrate=   0.4kbits/s speed=0.0095x elapsed=0:01:31.21    \nframe=   55 fps=0.6 q=37.4 size=     256KiB time=00:00:00.88 bitrate=2374.5kbits/s speed=0.00963x elapsed=0:01:31.77    \nframe=   56 fps=0.6 q=37.2 size=     256KiB time=00:00:00.90 bitrate=2330.6kbits/s speed=0.00974x elapsed=0:01:32.41    \nframe=   56 fps=0.6 q=37.2 size=     256KiB time=00:00:00.90 bitrate=2330.6kbits/s speed=0.00967x elapsed=0:01:33.08    \nframe=   57 fps=0.6 q=31.7 size=     256KiB time=00:00:00.90 bitrate=2330.6kbits/s speed=0.0096x elapsed=0:01:33.77    \nframe=   57 fps=0.6 q=31.7 size=     256KiB time=00:00:00.91 bitrate=2288.2kbits/s speed=0.00971x elapsed=0:01:34.40    \nframe=   58 fps=0.6 q=35.4 size=     256KiB time=00:00:00.93 bitrate=2247.3kbits/s speed=0.00983x elapsed=0:01:34.99    \nframe=   58 fps=0.6 q=35.4 size=     256KiB time=00:00:00.93 bitrate=2247.3kbits/s speed=0.00977x elapsed=0:01:35.56    \nframe=   59 fps=0.6 q=37.4 size=     256KiB time=00:00:00.95 bitrate=2207.9kbits/s speed=0.00988x elapsed=0:01:36.12    \nframe=   59 fps=0.6 q=37.4 size=     256KiB time=00:00:00.95 bitrate=2207.9kbits/s speed=0.00982x elapsed=0:01:36.72    \nframe=   59 fps=0.6 q=37.4 size=     256KiB time=00:00:00.95 bitrate=2207.9kbits/s speed=0.00976x elapsed=0:01:37.33    \nframe=   59 fps=0.6 q=37.4 size=     256KiB time=00:00:00.95 bitrate=2207.9kbits/s speed=0.00971x elapsed=0:01:37.84    \nframe=   60 fps=0.6 q=31.8 size=     256KiB time=00:00:00.96 bitrate=2169.8kbits/s speed=0.00983x elapsed=0:01:38.35    \nframe=   61 fps=0.6 q=36.0 size=     256KiB time=00:00:00.98 bitrate=2133.1kbits/s speed=0.00994x elapsed=0:01:38.89    \nframe=   61 fps=0.6 q=36.0 size=     256KiB time=00:00:00.98 bitrate=2133.1kbits/s speed=0.00989x elapsed=0:01:39.42    \nframe=   62 fps=0.6 q=37.3 size=     256KiB time=00:00:01.00 bitrate=2097.5kbits/s speed=0.01x elapsed=0:01:39.98    \nframe=   62 fps=0.6 q=37.3 size=     256KiB time=00:00:01.00 bitrate=2097.5kbits/s speed=0.00994x elapsed=0:01:40.60    \nframe=   62 fps=0.6 q=37.3 size=     256KiB time=00:00:01.00 bitrate=2097.5kbits/s speed=0.00989x elapsed=0:01:41.12    \nframe=   62 fps=0.6 q=37.3 size=     256KiB time=00:00:01.00 bitrate=2097.5kbits/s speed=0.00984x elapsed=0:01:41.65    \nframe=   62 fps=0.6 q=37.3 size=     256KiB time=00:00:01.00 bitrate=2097.5kbits/s speed=0.00978x elapsed=0:01:42.25    \nframe=   63 fps=0.6 q=37.2 size=     256KiB time=00:00:01.01 bitrate=2063.1kbits/s speed=0.00988x elapsed=0:01:42.87    \nframe=   63 fps=0.6 q=37.2 size=     256KiB time=00:00:01.01 bitrate=2063.1kbits/s speed=0.00982x elapsed=0:01:43.52    \nframe=   64 fps=0.6 q=37.2 size=     256KiB time=00:00:01.03 bitrate=2029.8kbits/s speed=0.00992x elapsed=0:01:44.13    \nframe=   64 fps=0.6 q=37.2 size=     256KiB time=00:00:01.03 bitrate=2029.8kbits/s speed=0.00987x elapsed=0:01:44.71    \nframe=   64 fps=0.6 q=37.2 size=     256KiB time=00:00:01.03 bitrate=2029.8kbits/s speed=0.00981x elapsed=0:01:45.31    \nframe=   64 fps=0.6 q=37.2 size=     256KiB time=00:00:01.03 bitrate=2029.8kbits/s speed=0.00975x elapsed=0:01:45.98    \nframe=   64 fps=0.6 q=37.2 size=     256KiB time=00:00:01.03 bitrate=2029.8kbits/s speed=0.0097x elapsed=0:01:46.55    \nframe=   64 fps=0.6 q=37.2 size=     256KiB time=00:00:01.03 bitrate=2029.8kbits/s speed=0.00964x elapsed=0:01:47.18    \nframe=   64 fps=0.6 q=37.2 size=     256KiB time=00:00:01.03 bitrate=2029.8kbits/s speed=0.00958x elapsed=0:01:47.81    \nframe=   64 fps=0.6 q=37.2 size=     256KiB time=00:00:01.03 bitrate=2029.8kbits/s speed=0.00953x elapsed=0:01:48.42    \nframe=   64 fps=0.6 q=37.2 size=     256KiB time=00:00:01.03 bitrate=2029.8kbits/s speed=0.00947x elapsed=0:01:49.11    \nframe=   65 fps=0.6 q=32.7 size=     256KiB time=00:00:01.05 bitrate=1997.6kbits/s speed=0.00957x elapsed=0:01:49.75    \nframe=   65 fps=0.6 q=32.7 size=     256KiB time=00:00:01.05 bitrate=1997.6kbits/s speed=0.00951x elapsed=0:01:50.36    \nframe=   67 fps=0.6 q=37.1 size=     256KiB time=00:00:01.08 bitrate=1936.2kbits/s speed=0.00977x elapsed=0:01:50.88    \nframe=   67 fps=0.6 q=37.1 size=     256KiB time=00:00:01.08 bitrate=1936.2kbits/s speed=0.00972x elapsed=0:01:51.44    \nframe=   67 fps=0.6 q=37.1 size=     256KiB time=00:00:01.08 bitrate=1936.2kbits/s speed=0.00967x elapsed=0:01:52.06    \nframe=   67 fps=0.6 q=37.1 size=     256KiB time=00:00:01.08 bitrate=1936.2kbits/s speed=0.00962x elapsed=0:01:52.60    \nframe=   67 fps=0.6 q=37.1 size=     256KiB time=00:00:01.08 bitrate=1936.2kbits/s speed=0.00957x elapsed=0:01:53.18    \nframe=   68 fps=0.6 q=37.3 size=     256KiB time=00:00:01.10 bitrate=1906.8kbits/s speed=0.00967x elapsed=0:01:53.78    \nframe=   68 fps=0.6 q=37.3 size=     256KiB time=00:00:01.10 bitrate=1906.8kbits/s speed=0.00962x elapsed=0:01:54.34    \nframe=   69 fps=0.6 q=37.5 size=     256KiB time=00:00:01.11 bitrate=1878.4kbits/s speed=0.00972x elapsed=0:01:54.86    \nframe=   69 fps=0.6 q=37.5 size=     256KiB time=00:00:01.11 bitrate=1878.4kbits/s speed=0.00968x elapsed=0:01:55.41    \nframe=   70 fps=0.6 q=32.6 size=     256KiB time=00:00:01.13 bitrate=1850.7kbits/s speed=0.00977x elapsed=0:01:55.98    \nframe=   70 fps=0.6 q=32.6 size=     256KiB time=00:00:01.13 bitrate=1850.7kbits/s speed=0.00973x elapsed=0:01:56.52    \nframe=   70 fps=0.6 q=32.6 size=     256KiB time=00:00:01.13 bitrate=1850.7kbits/s speed=0.00968x elapsed=0:01:57.05    \nframe=   70 fps=0.6 q=32.6 size=     256KiB time=00:00:01.13 bitrate=1850.7kbits/s speed=0.00964x elapsed=0:01:57.61    \nframe=   71 fps=0.6 q=37.2 size=     256KiB time=00:00:01.15 bitrate=1823.9kbits/s speed=0.00973x elapsed=0:01:58.22    \nframe=   71 fps=0.6 q=37.2 size=     256KiB time=00:00:01.15 bitrate=1823.9kbits/s speed=0.00968x elapsed=0:01:58.81    \nframe=   71 fps=0.6 q=37.2 size=     256KiB time=00:00:01.15 bitrate=1823.9kbits/s speed=0.00964x elapsed=0:01:59.33    \nframe=   72 fps=0.6 q=32.7 size=     256KiB time=00:00:01.16 bitrate=1797.9kbits/s speed=0.00973x elapsed=0:01:59.95    \nframe=   73 fps=0.6 q=35.3 size=     256KiB time=00:00:01.18 bitrate=1772.5kbits/s speed=0.00982x elapsed=0:02:00.53    \nframe=   73 fps=0.6 q=35.3 size=     256KiB time=00:00:01.18 bitrate=1772.5kbits/s speed=0.00977x elapsed=0:02:01.11    \nframe=   75 fps=0.6 q=37.3 size=     256KiB time=00:00:01.21 bitrate=1724.0kbits/s speed=0.00999x elapsed=0:02:01.73    \nframe=   75 fps=0.6 q=37.3 size=     256KiB time=00:00:01.21 bitrate=1724.0kbits/s speed=0.00995x elapsed=0:02:02.28    \nframe=   75 fps=0.6 q=37.3 size=     256KiB time=00:00:01.21 bitrate=1724.0kbits/s speed=0.00991x elapsed=0:02:02.82    \nframe=   75 fps=0.6 q=37.3 size=     256KiB time=00:00:01.21 bitrate=1724.0kbits/s speed=0.00986x elapsed=0:02:03.38    \nframe=   76 fps=0.6 q=33.2 size=     256KiB time=00:00:01.23 bitrate=1700.7kbits/s speed=0.00995x elapsed=0:02:03.93    \nframe=   76 fps=0.6 q=33.2 size=     256KiB time=00:00:01.23 bitrate=1700.7kbits/s speed=0.0099x elapsed=0:02:04.56    \nframe=   76 fps=0.6 q=33.2 size=     256KiB time=00:00:01.23 bitrate=1700.7kbits/s speed=0.00985x elapsed=0:02:05.15    \nframe=   77 fps=0.6 q=35.3 size=     256KiB time=00:00:01.25 bitrate=1678.0kbits/s speed=0.00994x elapsed=0:02:05.72    \nframe=   77 fps=0.6 q=35.3 size=     256KiB time=00:00:01.25 bitrate=1678.0kbits/s speed=0.0099x elapsed=0:02:06.28    \nframe=   78 fps=0.6 q=37.4 size=     256KiB time=00:00:01.26 bitrate=1655.9kbits/s speed=0.00999x elapsed=0:02:06.80    \nframe=   78 fps=0.6 q=37.4 size=     256KiB time=00:00:01.26 bitrate=1655.9kbits/s speed=0.00994x elapsed=0:02:07.38    \nframe=   79 fps=0.6 q=37.9 size=     256KiB time=00:00:01.28 bitrate=1634.4kbits/s speed=0.01x elapsed=0:02:07.96    \nframe=   79 fps=0.6 q=37.9 size=     256KiB time=00:00:01.28 bitrate=1634.4kbits/s speed=0.00999x elapsed=0:02:08.48    \nframe=   79 fps=0.6 q=37.9 size=     256KiB time=00:00:01.28 bitrate=1634.4kbits/s speed=0.00995x elapsed=0:02:09.02    \nframe=   80 fps=0.6 q=32.7 size=     256KiB time=00:00:01.30 bitrate=1613.5kbits/s speed=0.01x elapsed=0:02:09.52    \nframe=   80 fps=0.6 q=32.7 size=     256KiB time=00:00:01.30 bitrate=1613.5kbits/s speed=0.01x elapsed=0:02:10.05    \nframe=   81 fps=0.6 q=36.7 size=     256KiB time=00:00:01.31 bitrate=1593.0kbits/s speed=0.0101x elapsed=0:02:10.58    \nframe=   81 fps=0.6 q=36.7 size=     256KiB time=00:00:01.31 bitrate=1593.0kbits/s speed=0.01x elapsed=0:02:11.14    \nframe=   81 fps=0.6 q=36.7 size=     256KiB time=00:00:01.31 bitrate=1593.0kbits/s speed=0.00999x elapsed=0:02:11.73    \nframe=   82 fps=0.6 q=38.1 size=     256KiB time=00:00:01.33 bitrate=1573.1kbits/s speed=0.0101x elapsed=0:02:12.26    \nframe=   83 fps=0.6 q=38.0 size=     256KiB time=00:00:01.35 bitrate=1553.7kbits/s speed=0.0102x elapsed=0:02:12.87    \nframe=   83 fps=0.6 q=38.0 size=     256KiB time=00:00:01.35 bitrate=1553.7kbits/s speed=0.0101x elapsed=0:02:13.46    \nframe=   83 fps=0.6 q=38.0 size=     256KiB time=00:00:01.35 bitrate=1553.7kbits/s speed=0.0101x elapsed=0:02:13.98    \nframe=   83 fps=0.6 q=38.0 size=     256KiB time=00:00:01.35 bitrate=1553.7kbits/s speed=0.01x elapsed=0:02:14.50    \nframe=   84 fps=0.6 q=38.2 size=     256KiB time=00:00:01.36 bitrate=1534.8kbits/s speed=0.0101x elapsed=0:02:15.06    \nframe=   85 fps=0.6 q=32.6 size=     256KiB time=00:00:01.38 bitrate=1516.3kbits/s speed=0.0102x elapsed=0:02:15.67    \nframe=   86 fps=0.6 q=35.9 size=     256KiB time=00:00:01.40 bitrate=1498.2kbits/s speed=0.0103x elapsed=0:02:16.21    \nframe=   86 fps=0.6 q=35.9 size=     256KiB time=00:00:01.40 bitrate=1498.2kbits/s speed=0.0102x elapsed=0:02:16.75    \nframe=   86 fps=0.6 q=35.9 size=     256KiB time=00:00:01.40 bitrate=1498.2kbits/s speed=0.0102x elapsed=0:02:17.32    \nframe=   86 fps=0.6 q=35.9 size=     256KiB time=00:00:01.40 bitrate=1498.2kbits/s speed=0.0102x elapsed=0:02:17.85    \nframe=   86 fps=0.6 q=35.9 size=     256KiB time=00:00:01.40 bitrate=1498.2kbits/s speed=0.0101x elapsed=0:02:18.39    \nframe=   87 fps=0.6 q=38.2 size=     256KiB time=00:00:01.41 bitrate=1480.6kbits/s speed=0.0102x elapsed=0:02:18.91    \nframe=   87 fps=0.6 q=38.2 size=     256KiB time=00:00:01.41 bitrate=1480.6kbits/s speed=0.0102x elapsed=0:02:19.44    \nframe=   87 fps=0.6 q=38.2 size=     256KiB time=00:00:01.41 bitrate=1480.6kbits/s speed=0.0101x elapsed=0:02:19.97    \nframe=   88 fps=0.6 q=38.3 size=     256KiB time=00:00:01.43 bitrate=1463.4kbits/s speed=0.0102x elapsed=0:02:20.64    \nframe=   88 fps=0.6 q=38.3 size=     256KiB time=00:00:01.43 bitrate=1463.4kbits/s speed=0.0102x elapsed=0:02:21.20    \nframe=   88 fps=0.6 q=38.3 size=     256KiB time=00:00:01.43 bitrate=1463.4kbits/s speed=0.0101x elapsed=0:02:21.73    \nframe=   88 fps=0.6 q=38.3 size=     256KiB time=00:00:01.43 bitrate=1463.4kbits/s speed=0.0101x elapsed=0:02:22.29    \nframe=   88 fps=0.6 q=38.3 size=     256KiB time=00:00:01.43 bitrate=1463.4kbits/s speed=0.01x elapsed=0:02:22.85    \nframe=   89 fps=0.6 q=33.5 size=     256KiB time=00:00:01.45 bitrate=1446.6kbits/s speed=0.0101x elapsed=0:02:23.43    \nframe=   90 fps=0.6 q=36.1 size=     256KiB time=00:00:01.46 bitrate=1430.1kbits/s speed=0.0102x elapsed=0:02:23.95    \nframe=   90 fps=0.6 q=36.1 size=     256KiB time=00:00:01.46 bitrate=1430.1kbits/s speed=0.0102x elapsed=0:02:24.48    \nframe=   90 fps=0.6 q=36.1 size=     256KiB time=00:00:01.46 bitrate=1430.1kbits/s speed=0.0101x elapsed=0:02:25.05    \nframe=   90 fps=0.6 q=36.1 size=     256KiB time=00:00:01.46 bitrate=1430.1kbits/s speed=0.0101x elapsed=0:02:25.56    \nframe=   91 fps=0.6 q=38.5 size=     256KiB time=00:00:01.48 bitrate=1414.0kbits/s speed=0.0102x elapsed=0:02:26.09    \nframe=   91 fps=0.6 q=38.5 size=     256KiB time=00:00:01.48 bitrate=1414.0kbits/s speed=0.0101x elapsed=0:02:26.62    \nframe=   91 fps=0.6 q=38.5 size=     256KiB time=00:00:01.48 bitrate=1414.0kbits/s speed=0.0101x elapsed=0:02:27.15    \nframe=   92 fps=0.6 q=38.5 size=     256KiB time=00:00:01.50 bitrate=1398.3kbits/s speed=0.0102x elapsed=0:02:27.70    \nframe=   92 fps=0.6 q=38.5 size=     256KiB time=00:00:01.50 bitrate=1398.3kbits/s speed=0.0101x elapsed=0:02:28.23    \nframe=   93 fps=0.6 q=33.4 size=     256KiB time=00:00:01.51 bitrate=1383.0kbits/s speed=0.0102x elapsed=0:02:28.77    \nframe=   93 fps=0.6 q=33.4 size=     256KiB time=00:00:01.51 bitrate=1383.0kbits/s speed=0.0102x elapsed=0:02:29.32    \nframe=   93 fps=0.6 q=33.4 size=     256KiB time=00:00:01.51 bitrate=1383.0kbits/s speed=0.0101x elapsed=0:02:29.84    \nframe=   93 fps=0.6 q=33.4 size=     256KiB time=00:00:01.51 bitrate=1383.0kbits/s speed=0.0101x elapsed=0:02:30.38    \nframe=   93 fps=0.6 q=33.4 size=     256KiB time=00:00:01.51 bitrate=1383.0kbits/s speed=0.01x elapsed=0:02:30.93    \nframe=   94 fps=0.6 q=36.5 size=     256KiB time=00:00:01.53 bitrate=1367.9kbits/s speed=0.0101x elapsed=0:02:31.51    \nframe=   94 fps=0.6 q=36.5 size=     256KiB time=00:00:01.53 bitrate=1367.9kbits/s speed=0.0101x elapsed=0:02:32.05    \nframe=   94 fps=0.6 q=36.5 size=     256KiB time=00:00:01.53 bitrate=1367.9kbits/s speed=0.01x elapsed=0:02:32.64    \nframe=   95 fps=0.6 q=39.1 size=     256KiB time=00:00:01.55 bitrate=1353.2kbits/s speed=0.0101x elapsed=0:02:33.15    \nframe=   96 fps=0.6 q=33.8 size=     256KiB time=00:00:01.56 bitrate=1338.8kbits/s speed=0.0102x elapsed=0:02:33.77    \nframe=   96 fps=0.6 q=33.8 size=     256KiB time=00:00:01.56 bitrate=1338.8kbits/s speed=0.0101x elapsed=0:02:34.49    \nframe=   96 fps=0.6 q=33.8 size=     256KiB time=00:00:01.56 bitrate=1338.8kbits/s speed=0.0101x elapsed=0:02:35.14    \nframe=   96 fps=0.6 q=33.8 size=     256KiB time=00:00:01.56 bitrate=1338.8kbits/s speed=0.0101x elapsed=0:02:35.67    \nframe=   97 fps=0.6 q=37.6 size=     256KiB time=00:00:01.58 bitrate=1324.7kbits/s speed=0.0101x elapsed=0:02:36.19    \nframe=   97 fps=0.6 q=37.6 size=     256KiB time=00:00:01.58 bitrate=1324.7kbits/s speed=0.0101x elapsed=0:02:36.72    \nframe=   98 fps=0.6 q=39.1 size=     512KiB time=00:00:01.60 bitrate=2621.7kbits/s speed=0.0102x elapsed=0:02:37.23    \nframe=   99 fps=0.6 q=38.9 size=     512KiB time=00:00:01.61 bitrate=2594.6kbits/s speed=0.0102x elapsed=0:02:37.77    \nframe=   99 fps=0.6 q=38.9 size=     512KiB time=00:00:01.61 bitrate=2594.6kbits/s speed=0.0102x elapsed=0:02:38.37    \nframe=  100 fps=0.6 q=39.4 size=     512KiB time=00:00:01.63 bitrate=2568.2kbits/s speed=0.0103x elapsed=0:02:38.94    \nframe=  101 fps=0.6 q=33.9 size=     512KiB time=00:00:01.65 bitrate=2542.2kbits/s speed=0.0103x elapsed=0:02:39.51    \nframe=  101 fps=0.6 q=33.9 size=     512KiB time=00:00:01.65 bitrate=2542.2kbits/s speed=0.0103x elapsed=0:02:40.06    \nframe=  101 fps=0.6 q=33.9 size=     512KiB time=00:00:01.65 bitrate=2542.2kbits/s speed=0.0103x elapsed=0:02:40.65    \nframe=  101 fps=0.6 q=33.9 size=     512KiB time=00:00:01.65 bitrate=2542.2kbits/s speed=0.0102x elapsed=0:02:41.20    \nframe=  101 fps=0.6 q=33.9 size=     512KiB time=00:00:01.65 bitrate=2542.2kbits/s speed=0.0102x elapsed=0:02:41.78    \nframe=  101 fps=0.6 q=33.9 size=     512KiB time=00:00:01.65 bitrate=2542.2kbits/s speed=0.0102x elapsed=0:02:42.30    \nframe=  101 fps=0.6 q=33.9 size=     512KiB time=00:00:01.65 bitrate=2542.2kbits/s speed=0.0101x elapsed=0:02:42.87    \nframe=  102 fps=0.6 q=36.6 size=     512KiB time=00:00:01.66 bitrate=2516.8kbits/s speed=0.0102x elapsed=0:02:43.46    \nframe=  102 fps=0.6 q=36.6 size=     512KiB time=00:00:01.66 bitrate=2516.8kbits/s speed=0.0102x elapsed=0:02:44.04    \nframe=  102 fps=0.6 q=36.6 size=     512KiB time=00:00:01.66 bitrate=2516.8kbits/s speed=0.0101x elapsed=0:02:44.64    \nframe=  102 fps=0.6 q=36.6 size=     512KiB time=00:00:01.66 bitrate=2516.8kbits/s speed=0.0101x elapsed=0:02:45.28    \nframe=  102 fps=0.6 q=36.6 size=     512KiB time=00:00:01.66 bitrate=2516.8kbits/s speed=0.01x elapsed=0:02:45.90    \nframe=  102 fps=0.6 q=36.6 size=     512KiB time=00:00:01.66 bitrate=2516.8kbits/s speed=0.01x elapsed=0:02:46.47    \nframe=  102 fps=0.6 q=36.6 size=     512KiB time=00:00:01.66 bitrate=2516.8kbits/s speed=0.00998x elapsed=0:02:47.03    \nframe=  104 fps=0.6 q=34.2 size=     512KiB time=00:00:01.70 bitrate=2467.4kbits/s speed=0.0101x elapsed=0:02:47.56    \nframe=  104 fps=0.6 q=34.2 size=     512KiB time=00:00:01.70 bitrate=2467.4kbits/s speed=0.0101x elapsed=0:02:48.10    \nframe=  104 fps=0.6 q=34.2 size=     512KiB time=00:00:01.70 bitrate=2467.4kbits/s speed=0.0101x elapsed=0:02:48.62    \nframe=  104 fps=0.6 q=34.2 size=     512KiB time=00:00:01.70 bitrate=2467.4kbits/s speed=0.01x elapsed=0:02:49.17    \nframe=  104 fps=0.6 q=34.2 size=     512KiB time=00:00:01.70 bitrate=2467.4kbits/s speed=0.01x elapsed=0:02:49.70    \nframe=  105 fps=0.6 q=35.9 size=     512KiB time=00:00:01.71 bitrate=2443.5kbits/s speed=0.0101x elapsed=0:02:50.23    \nframe=  106 fps=0.6 q=40.0 size=     512KiB time=00:00:01.73 bitrate=2420.0kbits/s speed=0.0102x elapsed=0:02:50.76    \nframe=  107 fps=0.6 q=34.2 size=     512KiB time=00:00:01.75 bitrate=2396.9kbits/s speed=0.0102x elapsed=0:02:51.27    \nframe=  107 fps=0.6 q=34.2 size=     512KiB time=00:00:01.75 bitrate=2396.9kbits/s speed=0.0102x elapsed=0:02:51.85    \nframe=  107 fps=0.6 q=34.2 size=     512KiB time=00:00:01.75 bitrate=2396.9kbits/s speed=0.0102x elapsed=0:02:52.39    \nframe=  108 fps=0.6 q=37.1 size=     512KiB time=00:00:01.76 bitrate=2374.3kbits/s speed=0.0102x elapsed=0:02:52.90    \nframe=  109 fps=0.6 q=39.8 size=     512KiB time=00:00:01.78 bitrate=2352.1kbits/s speed=0.0103x elapsed=0:02:53.41    \nframe=  109 fps=0.6 q=39.8 size=     512KiB time=00:00:01.78 bitrate=2352.1kbits/s speed=0.0103x elapsed=0:02:53.95    \nframe=  109 fps=0.6 q=39.8 size=     512KiB time=00:00:01.78 bitrate=2352.1kbits/s speed=0.0102x elapsed=0:02:54.47    \nframe=  109 fps=0.6 q=39.8 size=     512KiB time=00:00:01.78 bitrate=2352.1kbits/s speed=0.0102x elapsed=0:02:55.05    \nframe=  110 fps=0.6 q=39.8 size=     512KiB time=00:00:01.80 bitrate=2330.4kbits/s speed=0.0103x elapsed=0:02:55.60    \nframe=  111 fps=0.6 q=39.8 size=     512KiB time=00:00:01.81 bitrate=2309.0kbits/s speed=0.0103x elapsed=0:02:56.12    \nframe=  112 fps=0.6 q=34.1 size=     512KiB time=00:00:01.83 bitrate=2288.0kbits/s speed=0.0104x elapsed=0:02:56.64    \nframe=  113 fps=0.6 q=37.5 size=     512KiB time=00:00:01.85 bitrate=2267.4kbits/s speed=0.0104x elapsed=0:02:57.18    \nframe=  113 fps=0.6 q=37.5 size=     512KiB time=00:00:01.85 bitrate=2267.4kbits/s speed=0.0104x elapsed=0:02:57.73    \nframe=  114 fps=0.6 q=39.7 size=     512KiB time=00:00:01.86 bitrate=2247.1kbits/s speed=0.0105x elapsed=0:02:58.28    \nframe=  115 fps=0.6 q=40.1 size=     512KiB time=00:00:01.88 bitrate=2227.3kbits/s speed=0.0105x elapsed=0:02:58.80    \nframe=  116 fps=0.6 q=33.9 size=     512KiB time=00:00:01.88 bitrate=2227.3kbits/s speed=0.0105x elapsed=0:02:59.32    \nframe=  116 fps=0.6 q=33.9 size=     512KiB time=00:00:01.90 bitrate=2207.7kbits/s speed=0.0106x elapsed=0:02:59.86    \nframe=  117 fps=0.6 q=38.6 size=     512KiB time=00:00:01.91 bitrate=2188.5kbits/s speed=0.0106x elapsed=0:03:00.38    \nframe=  118 fps=0.7 q=40.0 size=     512KiB time=00:00:01.93 bitrate=2169.7kbits/s speed=0.0107x elapsed=0:03:00.89    \nframe=  118 fps=0.7 q=40.0 size=     512KiB time=00:00:01.93 bitrate=2169.7kbits/s speed=0.0107x elapsed=0:03:01.40    \nframe=  120 fps=0.7 q=40.3 size=     512KiB time=00:00:01.96 bitrate=2132.9kbits/s speed=0.0108x elapsed=0:03:01.92    \nframe=  120 fps=0.7 q=40.3 size=     512KiB time=00:00:01.96 bitrate=2132.9kbits/s speed=0.0108x elapsed=0:03:02.45    \nframe=  121 fps=0.7 q=34.1 size=     512KiB time=00:00:01.98 bitrate=2115.0kbits/s speed=0.0108x elapsed=0:03:03.01    \nframe=  122 fps=0.7 q=37.5 size=     512KiB time=00:00:02.00 bitrate=2097.3kbits/s speed=0.0109x elapsed=0:03:03.59    \nframe=  122 fps=0.7 q=37.5 size=     512KiB time=00:00:02.00 bitrate=2097.3kbits/s speed=0.0109x elapsed=0:03:04.16    \nframe=  122 fps=0.7 q=37.5 size=     512KiB time=00:00:02.00 bitrate=2097.3kbits/s speed=0.0108x elapsed=0:03:04.67    \nframe=  124 fps=0.7 q=40.3 size=     512KiB time=00:00:02.03 bitrate=2062.9kbits/s speed=0.011x elapsed=0:03:05.19    \nframe=  124 fps=0.7 q=40.3 size=     512KiB time=00:00:02.03 bitrate=2062.9kbits/s speed=0.0109x elapsed=0:03:05.74    \nframe=  125 fps=0.7 q=33.9 size=     512KiB time=00:00:02.05 bitrate=2046.2kbits/s speed=0.011x elapsed=0:03:06.32    \nframe=  126 fps=0.7 q=37.4 size=     512KiB time=00:00:02.06 bitrate=2029.7kbits/s speed=0.0111x elapsed=0:03:06.82    \nframe=  126 fps=0.7 q=37.4 size=     512KiB time=00:00:02.06 bitrate=2029.7kbits/s speed=0.011x elapsed=0:03:07.36    \nframe=  127 fps=0.7 q=40.0 size=     512KiB time=00:00:02.08 bitrate=2013.4kbits/s speed=0.0111x elapsed=0:03:07.87    \nframe=  128 fps=0.7 q=40.2 size=     512KiB time=00:00:02.10 bitrate=1997.5kbits/s speed=0.0111x elapsed=0:03:08.39    \nframe=  129 fps=0.7 q=33.7 size=     512KiB time=00:00:02.11 bitrate=1981.7kbits/s speed=0.0112x elapsed=0:03:08.92    \nframe=  129 fps=0.7 q=33.7 size=     512KiB time=00:00:02.11 bitrate=1981.7kbits/s speed=0.0112x elapsed=0:03:09.46    \nframe=  130 fps=0.7 q=38.8 size=     512KiB time=00:00:02.13 bitrate=1966.2kbits/s speed=0.0112x elapsed=0:03:09.97    \nframe=  130 fps=0.7 q=38.8 size=     512KiB time=00:00:02.13 bitrate=1966.2kbits/s speed=0.0112x elapsed=0:03:10.48    \nframe=  131 fps=0.7 q=40.0 size=     512KiB time=00:00:02.15 bitrate=1951.0kbits/s speed=0.0113x elapsed=0:03:11.00    \nframe=  131 fps=0.7 q=40.0 size=     512KiB time=00:00:02.15 bitrate=1951.0kbits/s speed=0.0112x elapsed=0:03:11.52    \nframe=  132 fps=0.7 q=33.9 size=     512KiB time=00:00:02.16 bitrate=1936.0kbits/s speed=0.0113x elapsed=0:03:12.04    \nframe=  133 fps=0.7 q=37.4 size=     512KiB time=00:00:02.18 bitrate=1921.2kbits/s speed=0.0113x elapsed=0:03:12.60    \nframe=  133 fps=0.7 q=37.4 size=     512KiB time=00:00:02.18 bitrate=1921.2kbits/s speed=0.0113x elapsed=0:03:13.14    \nframe=  134 fps=0.7 q=40.1 size=     512KiB time=00:00:02.20 bitrate=1906.7kbits/s speed=0.0114x elapsed=0:03:13.67    \nframe=  135 fps=0.7 q=40.2 size=     512KiB time=00:00:02.21 bitrate=1892.3kbits/s speed=0.0114x elapsed=0:03:14.19    \nframe=  135 fps=0.7 q=40.2 size=     512KiB time=00:00:02.21 bitrate=1892.3kbits/s speed=0.0114x elapsed=0:03:14.72    \nframe=  136 fps=0.7 q=33.6 size=     512KiB time=00:00:02.23 bitrate=1878.2kbits/s speed=0.0114x elapsed=0:03:15.24    \nframe=  136 fps=0.7 q=33.6 size=     512KiB time=00:00:02.23 bitrate=1878.2kbits/s speed=0.0114x elapsed=0:03:15.75    \nframe=  139 fps=0.7 q=40.1 size=     512KiB time=00:00:02.28 bitrate=1837.1kbits/s speed=0.0116x elapsed=0:03:16.30    \nframe=  139 fps=0.7 q=40.1 size=     512KiB time=00:00:02.28 bitrate=1837.1kbits/s speed=0.0116x elapsed=0:03:16.81    \nframe=  140 fps=0.7 q=40.0 size=     512KiB time=00:00:02.30 bitrate=1823.8kbits/s speed=0.0117x elapsed=0:03:17.38    \nframe=  140 fps=0.7 q=40.0 size=     512KiB time=00:00:02.30 bitrate=1823.8kbits/s speed=0.0116x elapsed=0:03:17.91    \nframe=  141 fps=0.7 q=33.7 size=     512KiB time=00:00:02.31 bitrate=1810.6kbits/s speed=0.0117x elapsed=0:03:18.45    \nframe=  142 fps=0.7 q=38.7 size=     512KiB time=00:00:02.33 bitrate=1797.7kbits/s speed=0.0117x elapsed=0:03:18.97    \nframe=  144 fps=0.7 q=39.9 size=     512KiB time=00:00:02.36 bitrate=1772.4kbits/s speed=0.0119x elapsed=0:03:19.51    \nframe=  144 fps=0.7 q=39.9 size=     512KiB time=00:00:02.36 bitrate=1772.4kbits/s speed=0.0118x elapsed=0:03:20.05    \nframe=  144 fps=0.7 q=39.9 size=     512KiB time=00:00:02.36 bitrate=1772.4kbits/s speed=0.0118x elapsed=0:03:20.56    \nframe=  145 fps=0.7 q=40.1 size=     512KiB time=00:00:02.38 bitrate=1760.0kbits/s speed=0.0119x elapsed=0:03:21.07    \nframe=  146 fps=0.7 q=33.8 size=     768KiB time=00:00:02.40 bitrate=2621.6kbits/s speed=0.0119x elapsed=0:03:21.60    \nframe=  146 fps=0.7 q=33.8 size=     768KiB time=00:00:02.40 bitrate=2621.6kbits/s speed=0.0119x elapsed=0:03:22.12    \nframe=  147 fps=0.7 q=37.2 size=     768KiB time=00:00:02.41 bitrate=2603.5kbits/s speed=0.0119x elapsed=0:03:22.65    \nframe=  148 fps=0.7 q=40.1 size=     768KiB time=00:00:02.43 bitrate=2585.7kbits/s speed=0.012x elapsed=0:03:23.20    \nframe=  149 fps=0.7 q=33.8 size=     768KiB time=00:00:02.45 bitrate=2568.1kbits/s speed=0.012x elapsed=0:03:23.71    \nframe=  150 fps=0.7 q=36.9 size=     768KiB time=00:00:02.46 bitrate=2550.7kbits/s speed=0.0121x elapsed=0:03:24.23    \nframe=  151 fps=0.7 q=40.0 size=     768KiB time=00:00:02.48 bitrate=2533.6kbits/s speed=0.0121x elapsed=0:03:24.75    \nframe=  151 fps=0.7 q=40.0 size=     768KiB time=00:00:02.48 bitrate=2533.6kbits/s speed=0.0121x elapsed=0:03:25.31    \nframe=  152 fps=0.7 q=40.2 size=     768KiB time=00:00:02.50 bitrate=2516.7kbits/s speed=0.0121x elapsed=0:03:25.89    \nframe=  153 fps=0.7 q=33.9 size=     768KiB time=00:00:02.51 bitrate=2500.1kbits/s speed=0.0122x elapsed=0:03:26.44    \nframe=  154 fps=0.7 q=36.4 size=     768KiB time=00:00:02.53 bitrate=2483.6kbits/s speed=0.0122x elapsed=0:03:26.95    \nframe=  154 fps=0.7 q=36.4 size=     768KiB time=00:00:02.53 bitrate=2483.6kbits/s speed=0.0122x elapsed=0:03:27.46    \nframe=  156 fps=0.8 q=39.8 size=     768KiB time=00:00:02.56 bitrate=2451.4kbits/s speed=0.0123x elapsed=0:03:27.98    \nframe=  156 fps=0.7 q=39.8 size=     768KiB time=00:00:02.56 bitrate=2451.4kbits/s speed=0.0123x elapsed=0:03:28.53    \nframe=  157 fps=0.8 q=33.8 size=     768KiB time=00:00:02.58 bitrate=2435.5kbits/s speed=0.0124x elapsed=0:03:29.06    \nframe=  158 fps=0.8 q=36.9 size=     768KiB time=00:00:02.60 bitrate=2419.9kbits/s speed=0.0124x elapsed=0:03:29.60    \nframe=  158 fps=0.8 q=36.9 size=     768KiB time=00:00:02.60 bitrate=2419.9kbits/s speed=0.0124x elapsed=0:03:30.12    \nframe=  159 fps=0.8 q=39.9 size=     768KiB time=00:00:02.61 bitrate=2404.5kbits/s speed=0.0124x elapsed=0:03:30.65    \nframe=  160 fps=0.8 q=39.6 size=     768KiB time=00:00:02.63 bitrate=2389.3kbits/s speed=0.0125x elapsed=0:03:31.20    \nframe=  162 fps=0.8 q=36.9 size=     768KiB time=00:00:02.66 bitrate=2359.4kbits/s speed=0.0126x elapsed=0:03:31.73    \nframe=  163 fps=0.8 q=39.2 size=     768KiB time=00:00:02.68 bitrate=2344.8kbits/s speed=0.0126x elapsed=0:03:32.25    \nframe=  164 fps=0.8 q=39.6 size=     768KiB time=00:00:02.70 bitrate=2330.3kbits/s speed=0.0127x elapsed=0:03:32.79    \nframe=  165 fps=0.8 q=33.9 size=     768KiB time=00:00:02.71 bitrate=2316.0kbits/s speed=0.0127x elapsed=0:03:33.33    \nframe=  165 fps=0.8 q=33.9 size=     768KiB time=00:00:02.71 bitrate=2316.0kbits/s speed=0.0127x elapsed=0:03:33.93    \nframe=  166 fps=0.8 q=37.0 size=     768KiB time=00:00:02.73 bitrate=2301.9kbits/s speed=0.0127x elapsed=0:03:34.49    \nframe=  167 fps=0.8 q=39.4 size=     768KiB time=00:00:02.75 bitrate=2287.9kbits/s speed=0.0128x elapsed=0:03:35.01    \nframe=  168 fps=0.8 q=39.3 size=     768KiB time=00:00:02.76 bitrate=2274.1kbits/s speed=0.0128x elapsed=0:03:35.54    \nframe=  169 fps=0.8 q=33.7 size=     768KiB time=00:00:02.78 bitrate=2260.5kbits/s speed=0.0129x elapsed=0:03:36.06    \nframe=  170 fps=0.8 q=36.9 size=     768KiB time=00:00:02.80 bitrate=2247.1kbits/s speed=0.0129x elapsed=0:03:36.59    \nframe=  170 fps=0.8 q=36.9 size=     768KiB time=00:00:02.80 bitrate=2247.1kbits/s speed=0.0129x elapsed=0:03:37.15    \nframe=  171 fps=0.8 q=39.4 size=     768KiB time=00:00:02.81 bitrate=2233.8kbits/s speed=0.0129x elapsed=0:03:37.68    \nframe=  172 fps=0.8 q=39.4 size=     768KiB time=00:00:02.83 bitrate=2220.6kbits/s speed=0.013x elapsed=0:03:38.23    \nframe=  173 fps=0.8 q=34.4 size=     768KiB time=00:00:02.85 bitrate=2207.7kbits/s speed=0.013x elapsed=0:03:38.77    \nframe=  174 fps=0.8 q=37.1 size=     768KiB time=00:00:02.86 bitrate=2194.8kbits/s speed=0.0131x elapsed=0:03:39.32    \nframe=  174 fps=0.8 q=37.1 size=     768KiB time=00:00:02.86 bitrate=2194.8kbits/s speed=0.013x elapsed=0:03:39.87    \nframe=  174 fps=0.8 q=37.1 size=     768KiB time=00:00:02.86 bitrate=2194.8kbits/s speed=0.013x elapsed=0:03:40.40    \nframe=  175 fps=0.8 q=39.4 size=     768KiB time=00:00:02.88 bitrate=2182.1kbits/s speed=0.013x elapsed=0:03:40.97    \nframe=  176 fps=0.8 q=39.3 size=     768KiB time=00:00:02.90 bitrate=2169.6kbits/s speed=0.0131x elapsed=0:03:41.51    \nframe=  176 fps=0.8 q=39.3 size=     768KiB time=00:00:02.90 bitrate=2169.6kbits/s speed=0.0131x elapsed=0:03:42.03    \nframe=  177 fps=0.8 q=34.4 size=     768KiB time=00:00:02.91 bitrate=2157.2kbits/s speed=0.0131x elapsed=0:03:42.56    \nframe=  177 fps=0.8 q=34.4 size=     768KiB time=00:00:02.91 bitrate=2157.2kbits/s speed=0.0131x elapsed=0:03:43.11    \nframe=  178 fps=0.8 q=36.8 size=     768KiB time=00:00:02.93 bitrate=2144.9kbits/s speed=0.0131x elapsed=0:03:43.64    \nframe=  179 fps=0.8 q=39.4 size=     768KiB time=00:00:02.95 bitrate=2132.8kbits/s speed=0.0132x elapsed=0:03:44.17    \nframe=  179 fps=0.8 q=39.4 size=     768KiB time=00:00:02.95 bitrate=2132.8kbits/s speed=0.0131x elapsed=0:03:44.68    \nframe=  179 fps=0.8 q=39.4 size=     768KiB time=00:00:02.95 bitrate=2132.8kbits/s speed=0.0131x elapsed=0:03:45.20    \nframe=  180 fps=0.8 q=39.4 size=     768KiB time=00:00:02.96 bitrate=2120.8kbits/s speed=0.0131x elapsed=0:03:45.72    \nframe=  180 fps=0.8 q=39.4 size=     768KiB time=00:00:02.96 bitrate=2120.8kbits/s speed=0.0131x elapsed=0:03:46.25    \nframe=  181 fps=0.8 q=34.8 size=     768KiB time=00:00:02.98 bitrate=2109.0kbits/s speed=0.0132x elapsed=0:03:46.76    \nframe=  182 fps=0.8 q=37.2 size=     768KiB time=00:00:03.00 bitrate=2097.3kbits/s speed=0.0132x elapsed=0:03:47.29    \nframe=  183 fps=0.8 q=39.4 size=     768KiB time=00:00:03.01 bitrate=2085.7kbits/s speed=0.0132x elapsed=0:03:47.82    \nframe=  183 fps=0.8 q=39.4 size=     768KiB time=00:00:03.01 bitrate=2085.7kbits/s speed=0.0132x elapsed=0:03:48.35    \nframe=  184 fps=0.8 q=39.4 size=     768KiB time=00:00:03.03 bitrate=2074.2kbits/s speed=0.0133x elapsed=0:03:48.87    \nframe=  184 fps=0.8 q=39.4 size=     768KiB time=00:00:03.03 bitrate=2074.2kbits/s speed=0.0132x elapsed=0:03:49.39    \nframe=  185 fps=0.8 q=34.0 size=     768KiB time=00:00:03.05 bitrate=2062.9kbits/s speed=0.0133x elapsed=0:03:49.90    \nframe=  185 fps=0.8 q=34.0 size=     768KiB time=00:00:03.05 bitrate=2062.9kbits/s speed=0.0132x elapsed=0:03:50.43    \nframe=  186 fps=0.8 q=37.4 size=     768KiB time=00:00:03.06 bitrate=2051.7kbits/s speed=0.0133x elapsed=0:03:50.95    \nframe=  186 fps=0.8 q=37.4 size=     768KiB time=00:00:03.06 bitrate=2051.7kbits/s speed=0.0132x elapsed=0:03:51.48    \nframe=  187 fps=0.8 q=39.4 size=     768KiB time=00:00:03.08 bitrate=2040.6kbits/s speed=0.0133x elapsed=0:03:52.01    \nframe=  188 fps=0.8 q=39.2 size=     768KiB time=00:00:03.10 bitrate=2029.6kbits/s speed=0.0133x elapsed=0:03:52.55    \nframe=  188 fps=0.8 q=39.2 size=     768KiB time=00:00:03.10 bitrate=2029.6kbits/s speed=0.0133x elapsed=0:03:53.08    \nframe=  188 fps=0.8 q=39.2 size=     768KiB time=00:00:03.10 bitrate=2029.6kbits/s speed=0.0133x elapsed=0:03:53.59    \nframe=  189 fps=0.8 q=34.4 size=     768KiB time=00:00:03.11 bitrate=2018.8kbits/s speed=0.0133x elapsed=0:03:54.11    \nframe=  189 fps=0.8 q=34.4 size=     768KiB time=00:00:03.11 bitrate=2018.8kbits/s speed=0.0133x elapsed=0:03:54.66    \nframe=  190 fps=0.8 q=37.2 size=     768KiB time=00:00:03.13 bitrate=2008.0kbits/s speed=0.0133x elapsed=0:03:55.18    \nframe=  190 fps=0.8 q=37.2 size=     768KiB time=00:00:03.13 bitrate=2008.0kbits/s speed=0.0133x elapsed=0:03:55.74    \nframe=  192 fps=0.8 q=39.5 size=     768KiB time=00:00:03.16 bitrate=1986.9kbits/s speed=0.0134x elapsed=0:03:56.26    \nframe=  192 fps=0.8 q=39.5 size=     768KiB time=00:00:03.16 bitrate=1986.9kbits/s speed=0.0134x elapsed=0:03:56.79    \nframe=  193 fps=0.8 q=33.8 size=     768KiB time=00:00:03.18 bitrate=1976.5kbits/s speed=0.0134x elapsed=0:03:57.32    \nframe=  194 fps=0.8 q=38.1 size=     768KiB time=00:00:03.20 bitrate=1966.2kbits/s speed=0.0135x elapsed=0:03:57.85    \nframe=  194 fps=0.8 q=38.1 size=     768KiB time=00:00:03.20 bitrate=1966.2kbits/s speed=0.0134x elapsed=0:03:58.37    \nframe=  195 fps=0.8 q=39.2 size=     768KiB time=00:00:03.21 bitrate=1956.0kbits/s speed=0.0135x elapsed=0:03:58.92    \nframe=  196 fps=0.8 q=39.3 size=     768KiB time=00:00:03.23 bitrate=1945.9kbits/s speed=0.0135x elapsed=0:03:59.44    \nframe=  197 fps=0.8 q=39.4 size=     768KiB time=00:00:03.25 bitrate=1935.9kbits/s speed=0.0135x elapsed=0:03:59.97    \nframe=  197 fps=0.8 q=39.4 size=     768KiB time=00:00:03.25 bitrate=1935.9kbits/s speed=0.0135x elapsed=0:04:00.50    \nframe=  197 fps=0.8 q=39.4 size=     768KiB time=00:00:03.25 bitrate=1935.9kbits/s speed=0.0135x elapsed=0:04:01.02    \nframe=  197 fps=0.8 q=39.4 size=     768KiB time=00:00:03.25 bitrate=1935.9kbits/s speed=0.0135x elapsed=0:04:01.54    \nframe=  198 fps=0.8 q=34.4 size=     768KiB time=00:00:03.26 bitrate=1926.1kbits/s speed=0.0135x elapsed=0:04:02.06    \nframe=  199 fps=0.8 q=36.9 size=    1024KiB time=00:00:03.28 bitrate=2555.0kbits/s speed=0.0135x elapsed=0:04:02.57    \nframe=  199 fps=0.8 q=36.9 size=    1024KiB time=00:00:03.28 bitrate=2555.0kbits/s speed=0.0135x elapsed=0:04:03.09    \nframe=  200 fps=0.8 q=39.4 size=    1024KiB time=00:00:03.30 bitrate=2542.1kbits/s speed=0.0135x elapsed=0:04:03.61    \nframe=  202 fps=0.8 q=34.5 size=    1024KiB time=00:00:03.33 bitrate=2516.7kbits/s speed=0.0137x elapsed=0:04:04.13    \nframe=  202 fps=0.8 q=34.5 size=    1024KiB time=00:00:03.33 bitrate=2516.7kbits/s speed=0.0136x elapsed=0:04:04.66    \nframe=  202 fps=0.8 q=34.5 size=    1024KiB time=00:00:03.33 bitrate=2516.7kbits/s speed=0.0136x elapsed=0:04:05.17    \nframe=  203 fps=0.8 q=37.5 size=    1024KiB time=00:00:03.35 bitrate=2504.2kbits/s speed=0.0136x elapsed=0:04:05.72    \nframe=  203 fps=0.8 q=37.5 size=    1024KiB time=00:00:03.35 bitrate=2504.2kbits/s speed=0.0136x elapsed=0:04:06.24    \nframe=  204 fps=0.8 q=39.4 size=    1024KiB time=00:00:03.36 bitrate=2491.8kbits/s speed=0.0136x elapsed=0:04:06.74    \nframe=  204 fps=0.8 q=39.4 size=    1024KiB time=00:00:03.36 bitrate=2491.8kbits/s speed=0.0136x elapsed=0:04:07.26    \nframe=  205 fps=0.8 q=34.6 size=    1024KiB time=00:00:03.38 bitrate=2479.5kbits/s speed=0.0137x elapsed=0:04:07.78    \nframe=  205 fps=0.8 q=34.6 size=    1024KiB time=00:00:03.38 bitrate=2479.5kbits/s speed=0.0136x elapsed=0:04:08.31    \nframe=  207 fps=0.8 q=40.1 size=    1024KiB time=00:00:03.41 bitrate=2455.3kbits/s speed=0.0137x elapsed=0:04:08.82    \nframe=  207 fps=0.8 q=40.1 size=    1024KiB time=00:00:03.41 bitrate=2455.3kbits/s speed=0.0137x elapsed=0:04:09.34    \nframe=  207 fps=0.8 q=40.1 size=    1024KiB time=00:00:03.41 bitrate=2455.3kbits/s speed=0.0137x elapsed=0:04:09.86    \nframe=  208 fps=0.8 q=40.1 size=    1024KiB time=00:00:03.43 bitrate=2443.4kbits/s speed=0.0137x elapsed=0:04:10.38    \nframe=  208 fps=0.8 q=40.1 size=    1024KiB time=00:00:03.43 bitrate=2443.4kbits/s speed=0.0137x elapsed=0:04:10.92    \nframe=  209 fps=0.8 q=35.4 size=    1024KiB time=00:00:03.45 bitrate=2431.6kbits/s speed=0.0137x elapsed=0:04:11.44    \nframe=  209 fps=0.8 q=35.4 size=    1024KiB time=00:00:03.45 bitrate=2431.6kbits/s speed=0.0137x elapsed=0:04:11.95    \nframe=  210 fps=0.8 q=39.1 size=    1024KiB time=00:00:03.46 bitrate=2419.9kbits/s speed=0.0137x elapsed=0:04:12.46    \nframe=  210 fps=0.8 q=39.1 size=    1024KiB time=00:00:03.46 bitrate=2419.9kbits/s speed=0.0137x elapsed=0:04:12.98    \nframe=  211 fps=0.8 q=40.4 size=    1024KiB time=00:00:03.48 bitrate=2408.3kbits/s speed=0.0137x elapsed=0:04:13.49    \nframe=  212 fps=0.8 q=41.1 size=    1024KiB time=00:00:03.50 bitrate=2396.8kbits/s speed=0.0138x elapsed=0:04:14.01    \nframe=  213 fps=0.8 q=35.7 size=    1024KiB time=00:00:03.51 bitrate=2385.5kbits/s speed=0.0138x elapsed=0:04:14.53    \nframe=  213 fps=0.8 q=35.7 size=    1024KiB time=00:00:03.51 bitrate=2385.5kbits/s speed=0.0138x elapsed=0:04:15.05    \nframe=  213 fps=0.8 q=35.7 size=    1024KiB time=00:00:03.51 bitrate=2385.5kbits/s speed=0.0138x elapsed=0:04:15.57    \nframe=  213 fps=0.8 q=35.7 size=    1024KiB time=00:00:03.51 bitrate=2385.5kbits/s speed=0.0137x elapsed=0:04:16.09    \nframe=  214 fps=0.8 q=39.7 size=    1024KiB time=00:00:03.53 bitrate=2374.2kbits/s speed=0.0138x elapsed=0:04:16.63    \nframe=  215 fps=0.8 q=41.2 size=    1024KiB time=00:00:03.55 bitrate=2363.1kbits/s speed=0.0138x elapsed=0:04:17.15    \nframe=  216 fps=0.8 q=41.4 size=    1024KiB time=00:00:03.56 bitrate=2352.0kbits/s speed=0.0138x elapsed=0:04:17.68    \nframe=  216 fps=0.8 q=41.4 size=    1024KiB time=00:00:03.56 bitrate=2352.0kbits/s speed=0.0138x elapsed=0:04:18.20    \nframe=  217 fps=0.8 q=36.8 size=    1024KiB time=00:00:03.58 bitrate=2341.1kbits/s speed=0.0138x elapsed=0:04:18.73    \nframe=  217 fps=0.8 q=36.8 size=    1024KiB time=00:00:03.58 bitrate=2341.1kbits/s speed=0.0138x elapsed=0:04:19.25    \nframe=  217 fps=0.8 q=36.8 size=    1024KiB time=00:00:03.58 bitrate=2341.1kbits/s speed=0.0138x elapsed=0:04:19.76    \nframe=  217 fps=0.8 q=36.8 size=    1024KiB time=00:00:03.58 bitrate=2341.1kbits/s speed=0.0138x elapsed=0:04:20.28    \nframe=  218 fps=0.8 q=40.2 size=    1024KiB time=00:00:03.60 bitrate=2330.3kbits/s speed=0.0138x elapsed=0:04:20.80    \nframe=  218 fps=0.8 q=40.2 size=    1024KiB time=00:00:03.60 bitrate=2330.3kbits/s speed=0.0138x elapsed=0:04:21.33    \nframe=  218 fps=0.8 q=40.2 size=    1024KiB time=00:00:03.60 bitrate=2330.3kbits/s speed=0.0137x elapsed=0:04:21.85    \nframe=  219 fps=0.8 q=42.0 size=    1024KiB time=00:00:03.61 bitrate=2319.5kbits/s speed=0.0138x elapsed=0:04:22.35    \nframe=  220 fps=0.8 q=42.2 size=    1024KiB time=00:00:03.63 bitrate=2308.9kbits/s speed=0.0138x elapsed=0:04:22.89    \nframe=  220 fps=0.8 q=42.2 size=    1024KiB time=00:00:03.63 bitrate=2308.9kbits/s speed=0.0138x elapsed=0:04:23.42    \nframe=  220 fps=0.8 q=42.2 size=    1024KiB time=00:00:03.63 bitrate=2308.9kbits/s speed=0.0138x elapsed=0:04:23.93    \nframe=  221 fps=0.8 q=37.6 size=    1024KiB time=00:00:03.65 bitrate=2298.3kbits/s speed=0.0138x elapsed=0:04:24.45    \nframe=  221 fps=0.8 q=37.6 size=    1024KiB time=00:00:03.65 bitrate=2298.3kbits/s speed=0.0138x elapsed=0:04:24.97    \nframe=  221 fps=0.8 q=37.6 size=    1024KiB time=00:00:03.65 bitrate=2298.3kbits/s speed=0.0137x elapsed=0:04:25.48    \nframe=  222 fps=0.8 q=40.9 size=    1024KiB time=00:00:03.66 bitrate=2287.9kbits/s speed=0.0138x elapsed=0:04:26.00    \nframe=  223 fps=0.8 q=42.3 size=    1024KiB time=00:00:03.68 bitrate=2277.5kbits/s speed=0.0138x elapsed=0:04:26.52    \nframe=  223 fps=0.8 q=42.3 size=    1024KiB time=00:00:03.68 bitrate=2277.5kbits/s speed=0.0138x elapsed=0:04:27.05    \nframe=  223 fps=0.8 q=42.3 size=    1024KiB time=00:00:03.68 bitrate=2277.5kbits/s speed=0.0138x elapsed=0:04:27.59    \nframe=  223 fps=0.8 q=42.3 size=    1024KiB time=00:00:03.68 bitrate=2277.5kbits/s speed=0.0137x elapsed=0:04:28.15    \nframe=  223 fps=0.8 q=42.3 size=    1024KiB time=00:00:03.68 bitrate=2277.5kbits/s speed=0.0137x elapsed=0:04:28.73    \nframe=  224 fps=0.8 q=42.7 size=    1024KiB time=00:00:03.70 bitrate=2267.3kbits/s speed=0.0137x elapsed=0:04:29.35    \nframe=  224 fps=0.8 q=42.7 size=    1024KiB time=00:00:03.70 bitrate=2267.3kbits/s speed=0.0137x elapsed=0:04:29.90    \nframe=  224 fps=0.8 q=42.7 size=    1024KiB time=00:00:03.70 bitrate=2267.3kbits/s speed=0.0137x elapsed=0:04:30.44    \nframe=  224 fps=0.8 q=42.7 size=    1024KiB time=00:00:03.70 bitrate=2267.3kbits/s speed=0.0137x elapsed=0:04:30.97    \nframe=  225 fps=0.8 q=38.0 size=    1024KiB time=00:00:03.71 bitrate=2257.1kbits/s speed=0.0137x elapsed=0:04:31.56    \nframe=  225 fps=0.8 q=38.0 size=    1024KiB time=00:00:03.71 bitrate=2257.1kbits/s speed=0.0137x elapsed=0:04:32.19    \nframe=  225 fps=0.8 q=38.0 size=    1024KiB time=00:00:03.71 bitrate=2257.1kbits/s speed=0.0136x elapsed=0:04:32.75    \nframe=  225 fps=0.8 q=38.0 size=    1024KiB time=00:00:03.71 bitrate=2257.1kbits/s speed=0.0136x elapsed=0:04:33.31    \nframe=  225 fps=0.8 q=38.0 size=    1024KiB time=00:00:03.71 bitrate=2257.1kbits/s speed=0.0136x elapsed=0:04:33.86    \nframe=  226 fps=0.8 q=41.1 size=    1024KiB time=00:00:03.73 bitrate=2247.0kbits/s speed=0.0136x elapsed=0:04:34.41    \nframe=  226 fps=0.8 q=41.1 size=    1024KiB time=00:00:03.73 bitrate=2247.0kbits/s speed=0.0136x elapsed=0:04:34.92    \nframe=  227 fps=0.8 q=42.9 size=    1024KiB time=00:00:03.75 bitrate=2237.1kbits/s speed=0.0136x elapsed=0:04:35.45    \nframe=  227 fps=0.8 q=42.9 size=    1024KiB time=00:00:03.75 bitrate=2237.1kbits/s speed=0.0136x elapsed=0:04:35.98    \nframe=  227 fps=0.8 q=42.9 size=    1024KiB time=00:00:03.75 bitrate=2237.1kbits/s speed=0.0136x elapsed=0:04:36.50    \nframe=  228 fps=0.8 q=38.4 size=    1024KiB time=00:00:03.76 bitrate=2227.2kbits/s speed=0.0136x elapsed=0:04:37.02    \nframe=  229 fps=0.8 q=42.2 size=    1024KiB time=00:00:03.78 bitrate=2217.3kbits/s speed=0.0136x elapsed=0:04:37.53    \nframe=  229 fps=0.8 q=42.2 size=    1024KiB time=00:00:03.78 bitrate=2217.3kbits/s speed=0.0136x elapsed=0:04:38.05    \nframe=  230 fps=0.8 q=43.2 size=    1024KiB time=00:00:03.80 bitrate=2207.6kbits/s speed=0.0136x elapsed=0:04:38.59    \nframe=  230 fps=0.8 q=43.2 size=    1024KiB time=00:00:03.80 bitrate=2207.6kbits/s speed=0.0136x elapsed=0:04:39.11    \nframe=  231 fps=0.8 q=38.2 size=    1024KiB time=00:00:03.81 bitrate=2198.0kbits/s speed=0.0136x elapsed=0:04:39.63    \nframe=  232 fps=0.8 q=42.0 size=    1024KiB time=00:00:03.83 bitrate=2188.4kbits/s speed=0.0137x elapsed=0:04:40.14    \nframe=  232 fps=0.8 q=42.0 size=    1024KiB time=00:00:03.83 bitrate=2188.4kbits/s speed=0.0137x elapsed=0:04:40.65    \nframe=  233 fps=0.8 q=43.3 size=    1024KiB time=00:00:03.85 bitrate=2179.0kbits/s speed=0.0137x elapsed=0:04:41.18    \nframe=  234 fps=0.8 q=37.7 size=    1024KiB time=00:00:03.86 bitrate=2169.6kbits/s speed=0.0137x elapsed=0:04:41.72    \nframe=  235 fps=0.8 q=41.8 size=    1024KiB time=00:00:03.88 bitrate=2160.2kbits/s speed=0.0138x elapsed=0:04:42.23    \nframe=  235 fps=0.8 q=41.8 size=    1024KiB time=00:00:03.88 bitrate=2160.2kbits/s speed=0.0137x elapsed=0:04:42.75    \nframe=  236 fps=0.8 q=43.1 size=    1024KiB time=00:00:03.90 bitrate=2151.0kbits/s speed=0.0138x elapsed=0:04:43.29    \nframe=  236 fps=0.8 q=43.1 size=    1024KiB time=00:00:03.90 bitrate=2151.0kbits/s speed=0.0137x elapsed=0:04:43.81    \nframe=  237 fps=0.8 q=37.8 size=    1024KiB time=00:00:03.91 bitrate=2141.9kbits/s speed=0.0138x elapsed=0:04:44.34    \nframe=  238 fps=0.8 q=42.0 size=    1024KiB time=00:00:03.93 bitrate=2132.8kbits/s speed=0.0138x elapsed=0:04:44.86    \nframe=  239 fps=0.8 q=43.1 size=    1024KiB time=00:00:03.95 bitrate=2123.8kbits/s speed=0.0138x elapsed=0:04:45.36    \nframe=  239 fps=0.8 q=43.1 size=    1024KiB time=00:00:03.95 bitrate=2123.8kbits/s speed=0.0138x elapsed=0:04:45.89    \nframe=  240 fps=0.8 q=38.0 size=    1024KiB time=00:00:03.96 bitrate=2114.9kbits/s speed=0.0138x elapsed=0:04:46.40    \nframe=  241 fps=0.8 q=42.4 size=    1280KiB time=00:00:03.98 bitrate=2632.5kbits/s speed=0.0139x elapsed=0:04:46.91    \nframe=  242 fps=0.8 q=37.6 size=    1280KiB time=00:00:04.00 bitrate=2621.5kbits/s speed=0.0139x elapsed=0:04:47.43    \nframe=  242 fps=0.8 q=37.6 size=    1280KiB time=00:00:04.00 bitrate=2621.5kbits/s speed=0.0139x elapsed=0:04:47.94    \nframe=  243 fps=0.8 q=41.3 size=    1280KiB time=00:00:04.01 bitrate=2610.7kbits/s speed=0.0139x elapsed=0:04:48.46    \nframe=  243 fps=0.8 q=41.3 size=    1280KiB time=00:00:04.01 bitrate=2610.7kbits/s speed=0.0139x elapsed=0:04:48.98    \nframe=  245 fps=0.8 q=37.3 size=    1280KiB time=00:00:04.05 bitrate=2589.2kbits/s speed=0.014x elapsed=0:04:49.50    \nframe=  245 fps=0.8 q=37.3 size=    1280KiB time=00:00:04.05 bitrate=2589.2kbits/s speed=0.014x elapsed=0:04:50.01    \nframe=  245 fps=0.8 q=37.3 size=    1280KiB time=00:00:04.05 bitrate=2589.2kbits/s speed=0.0139x elapsed=0:04:50.54    \nframe=  246 fps=0.8 q=41.1 size=    1280KiB time=00:00:04.06 bitrate=2578.6kbits/s speed=0.014x elapsed=0:04:51.07    \nframe=  246 fps=0.8 q=41.1 size=    1280KiB time=00:00:04.06 bitrate=2578.6kbits/s speed=0.0139x elapsed=0:04:51.59    \nframe=  247 fps=0.8 q=42.9 size=    1280KiB time=00:00:04.08 bitrate=2568.0kbits/s speed=0.014x elapsed=0:04:52.14    \nframe=  248 fps=0.8 q=36.3 size=    1280KiB time=00:00:04.10 bitrate=2557.6kbits/s speed=0.014x elapsed=0:04:52.67    \nframe=  249 fps=0.8 q=40.8 size=    1280KiB time=00:00:04.11 bitrate=2547.2kbits/s speed=0.014x elapsed=0:04:53.18    \nframe=  249 fps=0.8 q=40.8 size=    1280KiB time=00:00:04.11 bitrate=2547.2kbits/s speed=0.014x elapsed=0:04:53.71    \nframe=  250 fps=0.8 q=42.3 size=    1280KiB time=00:00:04.13 bitrate=2537.0kbits/s speed=0.014x elapsed=0:04:54.24    \nframe=  251 fps=0.9 q=34.5 size=    1280KiB time=00:00:04.15 bitrate=2526.8kbits/s speed=0.0141x elapsed=0:04:54.76    \nframe=  251 fps=0.9 q=34.5 size=    1280KiB time=00:00:04.15 bitrate=2526.8kbits/s speed=0.0141x elapsed=0:04:55.28    \nframe=  252 fps=0.9 q=34.5 size=    1280KiB time=00:00:04.16 bitrate=2516.7kbits/s speed=0.0141x elapsed=0:04:55.79    \nframe=  254 fps=0.9 q=41.2 size=    1280KiB time=00:00:04.20 bitrate=2496.7kbits/s speed=0.0142x elapsed=0:04:56.31    \nframe=  255 fps=0.9 q=41.2 size=    1280KiB time=00:00:04.21 bitrate=2486.8kbits/s speed=0.0142x elapsed=0:04:56.82    \nframe=  255 fps=0.9 q=41.2 size=    1280KiB time=00:00:04.21 bitrate=2486.8kbits/s speed=0.0142x elapsed=0:04:57.33    \nframe=  256 fps=0.9 q=41.0 size=    1280KiB time=00:00:04.23 bitrate=2477.0kbits/s speed=0.0142x elapsed=0:04:57.91    \nframe=  256 fps=0.9 q=41.0 size=    1280KiB time=00:00:04.23 bitrate=2477.0kbits/s speed=0.0142x elapsed=0:04:58.42    \nframe=  257 fps=0.9 q=33.9 size=    1280KiB time=00:00:04.25 bitrate=2467.3kbits/s speed=0.0142x elapsed=0:04:58.94    \nframe=  257 fps=0.9 q=33.9 size=    1280KiB time=00:00:04.25 bitrate=2467.3kbits/s speed=0.0142x elapsed=0:04:59.45    \nframe=  257 fps=0.9 q=33.9 size=    1280KiB time=00:00:04.25 bitrate=2467.3kbits/s speed=0.0142x elapsed=0:05:00.00    \nframe=  257 fps=0.9 q=33.9 size=    1280KiB time=00:00:04.25 bitrate=2467.3kbits/s speed=0.0141x elapsed=0:05:00.53    \nframe=  257 fps=0.9 q=33.9 size=    1280KiB time=00:00:04.25 bitrate=2467.3kbits/s speed=0.0141x elapsed=0:05:01.05    \nframe=  257 fps=0.9 q=33.9 size=    1280KiB time=00:00:04.25 bitrate=2467.3kbits/s speed=0.0141x elapsed=0:05:01.64    \nframe=  257 fps=0.9 q=33.9 size=    1280KiB time=00:00:04.25 bitrate=2467.3kbits/s speed=0.0141x elapsed=0:05:02.21    \nframe=  258 fps=0.9 q=38.7 size=    1280KiB time=00:00:04.26 bitrate=2457.7kbits/s speed=0.0141x elapsed=0:05:02.82    \nframe=  258 fps=0.9 q=38.7 size=    1280KiB time=00:00:04.26 bitrate=2457.7kbits/s speed=0.0141x elapsed=0:05:03.40    \nframe=  258 fps=0.8 q=38.7 size=    1280KiB time=00:00:04.26 bitrate=2457.7kbits/s speed=0.014x elapsed=0:05:03.95    \nframe=  259 fps=0.9 q=40.7 size=    1280KiB time=00:00:04.28 bitrate=2448.1kbits/s speed=0.0141x elapsed=0:05:04.46    \nframe=  259 fps=0.8 q=40.7 size=    1280KiB time=00:00:04.28 bitrate=2448.1kbits/s speed=0.014x elapsed=0:05:04.98    \nframe=  259 fps=0.8 q=40.7 size=    1280KiB time=00:00:04.28 bitrate=2448.1kbits/s speed=0.014x elapsed=0:05:05.53    \nframe=  260 fps=0.8 q=39.9 size=    1280KiB time=00:00:04.30 bitrate=2438.6kbits/s speed=0.014x elapsed=0:05:06.07    \nframe=  260 fps=0.8 q=39.9 size=    1280KiB time=00:00:04.30 bitrate=2438.6kbits/s speed=0.014x elapsed=0:05:06.60    \nframe=  260 fps=0.8 q=39.9 size=    1280KiB time=00:00:04.30 bitrate=2438.6kbits/s speed=0.014x elapsed=0:05:07.13    \nframe=  260 fps=0.8 q=39.9 size=    1280KiB time=00:00:04.30 bitrate=2438.6kbits/s speed=0.014x elapsed=0:05:07.65    \nframe=  260 fps=0.8 q=39.9 size=    1280KiB time=00:00:04.30 bitrate=2438.6kbits/s speed=0.014x elapsed=0:05:08.17    \nframe=  260 fps=0.8 q=39.9 size=    1280KiB time=00:00:04.30 bitrate=2438.6kbits/s speed=0.0139x elapsed=0:05:08.70    \nframe=  260 fps=0.8 q=39.9 size=    1280KiB time=00:00:04.30 bitrate=2438.6kbits/s speed=0.0139x elapsed=0:05:09.24    \nframe=  260 fps=0.8 q=39.9 size=    1280KiB time=00:00:04.30 bitrate=2438.6kbits/s speed=0.0139x elapsed=0:05:09.78    \nframe=  261 fps=0.8 q=34.4 size=    1280KiB time=00:00:04.31 bitrate=2429.2kbits/s speed=0.0139x elapsed=0:05:10.34    \nframe=  261 fps=0.8 q=34.4 size=    1280KiB time=00:00:04.31 bitrate=2429.2kbits/s speed=0.0139x elapsed=0:05:10.91    \nframe=  261 fps=0.8 q=34.4 size=    1280KiB time=00:00:04.31 bitrate=2429.2kbits/s speed=0.0139x elapsed=0:05:11.43    \nframe=  261 fps=0.8 q=34.4 size=    1280KiB time=00:00:04.31 bitrate=2429.2kbits/s speed=0.0138x elapsed=0:05:12.00    \nframe=  261 fps=0.8 q=34.4 size=    1280KiB time=00:00:04.31 bitrate=2429.2kbits/s speed=0.0138x elapsed=0:05:12.57    \nframe=  261 fps=0.8 q=34.4 size=    1280KiB time=00:00:04.31 bitrate=2429.2kbits/s speed=0.0138x elapsed=0:05:13.12    \nframe=  262 fps=0.8 q=37.7 size=    1280KiB time=00:00:04.33 bitrate=2419.9kbits/s speed=0.0138x elapsed=0:05:13.72    \nframe=  262 fps=0.8 q=37.7 size=    1280KiB time=00:00:04.33 bitrate=2419.9kbits/s speed=0.0138x elapsed=0:05:14.29    \nframe=  262 fps=0.8 q=37.7 size=    1280KiB time=00:00:04.33 bitrate=2419.9kbits/s speed=0.0138x elapsed=0:05:14.91    \nframe=  263 fps=0.8 q=39.9 size=    1280KiB time=00:00:04.35 bitrate=2410.6kbits/s speed=0.0138x elapsed=0:05:15.50    \nframe=  263 fps=0.8 q=39.9 size=    1280KiB time=00:00:04.35 bitrate=2410.6kbits/s speed=0.0138x elapsed=0:05:16.01    \nframe=  263 fps=0.8 q=39.9 size=    1280KiB time=00:00:04.35 bitrate=2410.6kbits/s speed=0.0137x elapsed=0:05:16.63    \nframe=  263 fps=0.8 q=39.9 size=    1280KiB time=00:00:04.35 bitrate=2410.6kbits/s speed=0.0137x elapsed=0:05:17.20    \nframe=  263 fps=0.8 q=39.9 size=    1280KiB time=00:00:04.35 bitrate=2410.6kbits/s speed=0.0137x elapsed=0:05:17.77    \nframe=  263 fps=0.8 q=39.9 size=    1280KiB time=00:00:04.35 bitrate=2410.6kbits/s speed=0.0137x elapsed=0:05:18.33    \nframe=  263 fps=0.8 q=39.9 size=    1280KiB time=00:00:04.35 bitrate=2410.6kbits/s speed=0.0136x elapsed=0:05:18.85    \nframe=  263 fps=0.8 q=39.9 size=    1280KiB time=00:00:04.35 bitrate=2410.6kbits/s speed=0.0136x elapsed=0:05:19.38    \nframe=  264 fps=0.8 q=39.9 size=    1280KiB time=00:00:04.36 bitrate=2401.4kbits/s speed=0.0136x elapsed=0:05:19.91    \nframe=  264 fps=0.8 q=39.9 size=    1280KiB time=00:00:04.36 bitrate=2401.4kbits/s speed=0.0136x elapsed=0:05:20.48    \nframe=  264 fps=0.8 q=39.9 size=    1280KiB time=00:00:04.36 bitrate=2401.4kbits/s speed=0.0136x elapsed=0:05:21.02    \nframe=  264 fps=0.8 q=39.9 size=    1280KiB time=00:00:04.36 bitrate=2401.4kbits/s speed=0.0136x elapsed=0:05:21.58    \nframe=  265 fps=0.8 q=34.2 size=    1280KiB time=00:00:04.38 bitrate=2392.3kbits/s speed=0.0136x elapsed=0:05:22.13    \nframe=  265 fps=0.8 q=34.2 size=    1280KiB time=00:00:04.38 bitrate=2392.3kbits/s speed=0.0136x elapsed=0:05:22.70    \nframe=  265 fps=0.8 q=34.2 size=    1280KiB time=00:00:04.38 bitrate=2392.3kbits/s speed=0.0136x elapsed=0:05:23.21    \nframe=  266 fps=0.8 q=37.4 size=    1280KiB time=00:00:04.40 bitrate=2383.2kbits/s speed=0.0136x elapsed=0:05:23.74    \nframe=  266 fps=0.8 q=37.4 size=    1280KiB time=00:00:04.40 bitrate=2383.2kbits/s speed=0.0136x elapsed=0:05:24.32    \nframe=  266 fps=0.8 q=37.4 size=    1280KiB time=00:00:04.40 bitrate=2383.2kbits/s speed=0.0135x elapsed=0:05:24.99    \nframe=  266 fps=0.8 q=37.4 size=    1280KiB time=00:00:04.40 bitrate=2383.2kbits/s speed=0.0135x elapsed=0:05:25.54    \nframe=  266 fps=0.8 q=37.4 size=    1280KiB time=00:00:04.40 bitrate=2383.2kbits/s speed=0.0135x elapsed=0:05:26.08    \nframe=  268 fps=0.8 q=39.7 size=    1280KiB time=00:00:04.43 bitrate=2365.3kbits/s speed=0.0136x elapsed=0:05:26.65    \nframe=  268 fps=0.8 q=39.7 size=    1280KiB time=00:00:04.43 bitrate=2365.3kbits/s speed=0.0136x elapsed=0:05:27.17    \nframe=  268 fps=0.8 q=39.7 size=    1280KiB time=00:00:04.43 bitrate=2365.3kbits/s speed=0.0135x elapsed=0:05:27.69    \nframe=  269 fps=0.8 q=33.9 size=    1280KiB time=00:00:04.45 bitrate=2356.4kbits/s speed=0.0136x elapsed=0:05:28.27    \nframe=  269 fps=0.8 q=33.9 size=    1280KiB time=00:00:04.45 bitrate=2356.4kbits/s speed=0.0135x elapsed=0:05:28.83    \nframe=  269 fps=0.8 q=33.9 size=    1280KiB time=00:00:04.45 bitrate=2356.4kbits/s speed=0.0135x elapsed=0:05:29.39    \nframe=  269 fps=0.8 q=33.9 size=    1280KiB time=00:00:04.45 bitrate=2356.4kbits/s speed=0.0135x elapsed=0:05:29.90    \nframe=  270 fps=0.8 q=37.4 size=    1280KiB time=00:00:04.46 bitrate=2347.6kbits/s speed=0.0135x elapsed=0:05:30.44    \nframe=  270 fps=0.8 q=37.4 size=    1280KiB time=00:00:04.46 bitrate=2347.6kbits/s speed=0.0135x elapsed=0:05:31.00    \nframe=  270 fps=0.8 q=37.4 size=    1280KiB time=00:00:04.46 bitrate=2347.6kbits/s speed=0.0135x elapsed=0:05:31.52    \nframe=  271 fps=0.8 q=39.7 size=    1280KiB time=00:00:04.48 bitrate=2338.9kbits/s speed=0.0135x elapsed=0:05:32.11    \nframe=  271 fps=0.8 q=39.7 size=    1280KiB time=00:00:04.48 bitrate=2338.9kbits/s speed=0.0135x elapsed=0:05:32.68    \nframe=  271 fps=0.8 q=39.7 size=    1280KiB time=00:00:04.48 bitrate=2338.9kbits/s speed=0.0135x elapsed=0:05:33.23    \nframe=  271 fps=0.8 q=39.7 size=    1280KiB time=00:00:04.48 bitrate=2338.9kbits/s speed=0.0134x elapsed=0:05:33.77    \nframe=  272 fps=0.8 q=39.6 size=    1280KiB time=00:00:04.50 bitrate=2330.2kbits/s speed=0.0135x elapsed=0:05:34.35    \nframe=  272 fps=0.8 q=39.6 size=    1280KiB time=00:00:04.50 bitrate=2330.2kbits/s speed=0.0134x elapsed=0:05:34.93    \nframe=  272 fps=0.8 q=39.6 size=    1280KiB time=00:00:04.50 bitrate=2330.2kbits/s speed=0.0134x elapsed=0:05:35.53    \nframe=  273 fps=0.8 q=34.2 size=    1280KiB time=00:00:04.51 bitrate=2321.6kbits/s speed=0.0134x elapsed=0:05:36.11    \nframe=  273 fps=0.8 q=34.2 size=    1280KiB time=00:00:04.51 bitrate=2321.6kbits/s speed=0.0134x elapsed=0:05:36.71    \nframe=  273 fps=0.8 q=34.2 size=    1280KiB time=00:00:04.51 bitrate=2321.6kbits/s speed=0.0134x elapsed=0:05:37.35    \nframe=  273 fps=0.8 q=34.2 size=    1280KiB time=00:00:04.51 bitrate=2321.6kbits/s speed=0.0134x elapsed=0:05:37.98    \nframe=  273 fps=0.8 q=34.2 size=    1280KiB time=00:00:04.51 bitrate=2321.6kbits/s speed=0.0133x elapsed=0:05:38.53    \nframe=  273 fps=0.8 q=34.2 size=    1280KiB time=00:00:04.51 bitrate=2321.6kbits/s speed=0.0133x elapsed=0:05:39.08    \nframe=  273 fps=0.8 q=34.2 size=    1280KiB time=00:00:04.51 bitrate=2321.6kbits/s speed=0.0133x elapsed=0:05:39.65    \nframe=  273 fps=0.8 q=34.2 size=    1280KiB time=00:00:04.51 bitrate=2321.6kbits/s speed=0.0133x elapsed=0:05:40.17    \nframe=  274 fps=0.8 q=37.3 size=    1280KiB time=00:00:04.53 bitrate=2313.1kbits/s speed=0.0133x elapsed=0:05:40.71    \nframe=  275 fps=0.8 q=39.7 size=    1280KiB time=00:00:04.55 bitrate=2304.6kbits/s speed=0.0133x elapsed=0:05:41.26    \nframe=  276 fps=0.8 q=39.8 size=    1280KiB time=00:00:04.56 bitrate=2296.2kbits/s speed=0.0134x elapsed=0:05:41.79    \nframe=  277 fps=0.8 q=34.2 size=    1280KiB time=00:00:04.58 bitrate=2287.9kbits/s speed=0.0134x elapsed=0:05:42.32    \nframe=  277 fps=0.8 q=34.2 size=    1280KiB time=00:00:04.58 bitrate=2287.9kbits/s speed=0.0134x elapsed=0:05:42.84    \nframe=  277 fps=0.8 q=34.2 size=    1280KiB time=00:00:04.58 bitrate=2287.9kbits/s speed=0.0133x elapsed=0:05:43.36    \nframe=  277 fps=0.8 q=34.2 size=    1280KiB time=00:00:04.58 bitrate=2287.9kbits/s speed=0.0133x elapsed=0:05:43.91    \nframe=  278 fps=0.8 q=37.1 size=    1280KiB time=00:00:04.60 bitrate=2279.6kbits/s speed=0.0134x elapsed=0:05:44.45    \nframe=  278 fps=0.8 q=37.1 size=    1280KiB time=00:00:04.60 bitrate=2279.6kbits/s speed=0.0133x elapsed=0:05:45.07    \nframe=  279 fps=0.8 q=39.5 size=    1280KiB time=00:00:04.61 bitrate=2271.4kbits/s speed=0.0134x elapsed=0:05:45.66    \nframe=  279 fps=0.8 q=39.5 size=    1280KiB time=00:00:04.61 bitrate=2271.4kbits/s speed=0.0133x elapsed=0:05:46.19    \nframe=  279 fps=0.8 q=39.5 size=    1280KiB time=00:00:04.61 bitrate=2271.4kbits/s speed=0.0133x elapsed=0:05:46.72    \nframe=  279 fps=0.8 q=39.5 size=    1280KiB time=00:00:04.61 bitrate=2271.4kbits/s speed=0.0133x elapsed=0:05:47.29    \nframe=  279 fps=0.8 q=39.5 size=    1280KiB time=00:00:04.61 bitrate=2271.4kbits/s speed=0.0133x elapsed=0:05:47.81    \nframe=  280 fps=0.8 q=39.3 size=    1280KiB time=00:00:04.63 bitrate=2263.2kbits/s speed=0.0133x elapsed=0:05:48.32    \nframe=  280 fps=0.8 q=39.3 size=    1280KiB time=00:00:04.63 bitrate=2263.2kbits/s speed=0.0133x elapsed=0:05:48.86    \nframe=  281 fps=0.8 q=34.4 size=    1280KiB time=00:00:04.65 bitrate=2255.1kbits/s speed=0.0133x elapsed=0:05:49.39    \nframe=  281 fps=0.8 q=34.4 size=    1280KiB time=00:00:04.65 bitrate=2255.1kbits/s speed=0.0133x elapsed=0:05:49.94    \nframe=  281 fps=0.8 q=34.4 size=    1280KiB time=00:00:04.65 bitrate=2255.1kbits/s speed=0.0133x elapsed=0:05:50.57    \nframe=  281 fps=0.8 q=34.4 size=    1280KiB time=00:00:04.65 bitrate=2255.1kbits/s speed=0.0132x elapsed=0:05:51.18    \nframe=  281 fps=0.8 q=34.4 size=    1280KiB time=00:00:04.65 bitrate=2255.1kbits/s speed=0.0132x elapsed=0:05:51.75    \nframe=  281 fps=0.8 q=34.4 size=    1280KiB time=00:00:04.65 bitrate=2255.1kbits/s speed=0.0132x elapsed=0:05:52.29    \nframe=  281 fps=0.8 q=34.4 size=    1280KiB time=00:00:04.65 bitrate=2255.1kbits/s speed=0.0132x elapsed=0:05:52.88    \nframe=  282 fps=0.8 q=37.2 size=    1280KiB time=00:00:04.66 bitrate=2247.0kbits/s speed=0.0132x elapsed=0:05:53.46    \nframe=  282 fps=0.8 q=37.2 size=    1280KiB time=00:00:04.66 bitrate=2247.0kbits/s speed=0.0132x elapsed=0:05:54.01    \nframe=  282 fps=0.8 q=37.2 size=    1280KiB time=00:00:04.66 bitrate=2247.0kbits/s speed=0.0132x elapsed=0:05:54.60    \nframe=  282 fps=0.8 q=37.2 size=    1280KiB time=00:00:04.66 bitrate=2247.0kbits/s speed=0.0131x elapsed=0:05:55.17    \nframe=  283 fps=0.8 q=39.6 size=    1280KiB time=00:00:04.68 bitrate=2239.0kbits/s speed=0.0132x elapsed=0:05:55.70    \nframe=  285 fps=0.8 q=34.0 size=    1280KiB time=00:00:04.71 bitrate=2223.2kbits/s speed=0.0132x elapsed=0:05:56.27    \nframe=  285 fps=0.8 q=34.0 size=    1280KiB time=00:00:04.71 bitrate=2223.2kbits/s speed=0.0132x elapsed=0:05:56.84    \nframe=  286 fps=0.8 q=37.6 size=    1280KiB time=00:00:04.73 bitrate=2215.4kbits/s speed=0.0132x elapsed=0:05:57.41    \nframe=  286 fps=0.8 q=37.6 size=    1280KiB time=00:00:04.73 bitrate=2215.4kbits/s speed=0.0132x elapsed=0:05:57.94    \nframe=  287 fps=0.8 q=39.8 size=    1280KiB time=00:00:04.75 bitrate=2207.6kbits/s speed=0.0133x elapsed=0:05:58.46    \nframe=  287 fps=0.8 q=39.8 size=    1280KiB time=00:00:04.75 bitrate=2207.6kbits/s speed=0.0132x elapsed=0:05:58.98    \nframe=  287 fps=0.8 q=39.8 size=    1280KiB time=00:00:04.75 bitrate=2207.6kbits/s speed=0.0132x elapsed=0:05:59.51    \nframe=  287 fps=0.8 q=39.8 size=    1280KiB time=00:00:04.75 bitrate=2207.6kbits/s speed=0.0132x elapsed=0:06:00.07    \nframe=  288 fps=0.8 q=40.2 size=    1280KiB time=00:00:04.76 bitrate=2199.9kbits/s speed=0.0132x elapsed=0:06:00.63    \nframe=  288 fps=0.8 q=40.2 size=    1280KiB time=00:00:04.76 bitrate=2199.9kbits/s speed=0.0132x elapsed=0:06:01.17    \nframe=  288 fps=0.8 q=40.2 size=    1280KiB time=00:00:04.76 bitrate=2199.9kbits/s speed=0.0132x elapsed=0:06:01.78    \nframe=  289 fps=0.8 q=34.5 size=    1280KiB time=00:00:04.78 bitrate=2192.2kbits/s speed=0.0132x elapsed=0:06:02.36    \nframe=  289 fps=0.8 q=34.5 size=    1280KiB time=00:00:04.78 bitrate=2192.2kbits/s speed=0.0132x elapsed=0:06:02.92    \nframe=  289 fps=0.8 q=34.5 size=    1280KiB time=00:00:04.78 bitrate=2192.2kbits/s speed=0.0132x elapsed=0:06:03.44    \nframe=  290 fps=0.8 q=37.4 size=    1280KiB time=00:00:04.80 bitrate=2184.6kbits/s speed=0.0132x elapsed=0:06:03.99    \nframe=  290 fps=0.8 q=37.4 size=    1280KiB time=00:00:04.80 bitrate=2184.6kbits/s speed=0.0132x elapsed=0:06:04.60    \nframe=  290 fps=0.8 q=37.4 size=    1280KiB time=00:00:04.80 bitrate=2184.6kbits/s speed=0.0131x elapsed=0:06:05.15    \nframe=  290 fps=0.8 q=37.4 size=    1280KiB time=00:00:04.80 bitrate=2184.6kbits/s speed=0.0131x elapsed=0:06:05.68    \nframe=  290 fps=0.8 q=37.4 size=    1280KiB time=00:00:04.80 bitrate=2184.6kbits/s speed=0.0131x elapsed=0:06:06.22    \nframe=  290 fps=0.8 q=37.4 size=    1280KiB time=00:00:04.80 bitrate=2184.6kbits/s speed=0.0131x elapsed=0:06:06.78    \nframe=  292 fps=0.8 q=39.9 size=    1280KiB time=00:00:04.83 bitrate=2169.5kbits/s speed=0.0132x elapsed=0:06:07.32    \nframe=  293 fps=0.8 q=34.6 size=    1280KiB time=00:00:04.85 bitrate=2162.1kbits/s speed=0.0132x elapsed=0:06:07.87    \nframe=  293 fps=0.8 q=34.6 size=    1280KiB time=00:00:04.85 bitrate=2162.1kbits/s speed=0.0132x elapsed=0:06:08.47    \nframe=  293 fps=0.8 q=34.6 size=    1280KiB time=00:00:04.85 bitrate=2162.1kbits/s speed=0.0131x elapsed=0:06:09.01    \nframe=  293 fps=0.8 q=34.6 size=    1280KiB time=00:00:04.85 bitrate=2162.1kbits/s speed=0.0131x elapsed=0:06:09.55    \nframe=  293 fps=0.8 q=34.6 size=    1280KiB time=00:00:04.85 bitrate=2162.1kbits/s speed=0.0131x elapsed=0:06:10.11    \nframe=  294 fps=0.8 q=37.2 size=    1280KiB time=00:00:04.86 bitrate=2154.7kbits/s speed=0.0131x elapsed=0:06:10.68    \nframe=  294 fps=0.8 q=37.2 size=    1280KiB time=00:00:04.86 bitrate=2154.7kbits/s speed=0.0131x elapsed=0:06:11.21    \nframe=  295 fps=0.8 q=40.1 size=    1536KiB time=00:00:04.88 bitrate=2576.8kbits/s speed=0.0131x elapsed=0:06:11.76    \nframe=  295 fps=0.8 q=40.1 size=    1536KiB time=00:00:04.88 bitrate=2576.8kbits/s speed=0.0131x elapsed=0:06:12.30    \nframe=  295 fps=0.8 q=40.1 size=    1536KiB time=00:00:04.88 bitrate=2576.8kbits/s speed=0.0131x elapsed=0:06:12.86    \nframe=  295 fps=0.8 q=40.1 size=    1536KiB time=00:00:04.88 bitrate=2576.8kbits/s speed=0.0131x elapsed=0:06:13.41    \nframe=  295 fps=0.8 q=40.1 size=    1536KiB time=00:00:04.88 bitrate=2576.8kbits/s speed=0.0131x elapsed=0:06:13.93    \nframe=  295 fps=0.8 q=40.1 size=    1536KiB time=00:00:04.88 bitrate=2576.8kbits/s speed=0.013x elapsed=0:06:14.45    \nframe=  296 fps=0.8 q=40.0 size=    1536KiB time=00:00:04.90 bitrate=2568.0kbits/s speed=0.0131x elapsed=0:06:14.98    \nframe=  296 fps=0.8 q=40.0 size=    1536KiB time=00:00:04.90 bitrate=2568.0kbits/s speed=0.013x elapsed=0:06:15.56    \nframe=  296 fps=0.8 q=40.0 size=    1536KiB time=00:00:04.90 bitrate=2568.0kbits/s speed=0.013x elapsed=0:06:16.12    \nframe=  296 fps=0.8 q=40.0 size=    1536KiB time=00:00:04.90 bitrate=2568.0kbits/s speed=0.013x elapsed=0:06:16.69    \nframe=  296 fps=0.8 q=40.0 size=    1536KiB time=00:00:04.90 bitrate=2568.0kbits/s speed=0.013x elapsed=0:06:17.21    \nframe=  296 fps=0.8 q=40.0 size=    1536KiB time=00:00:04.90 bitrate=2568.0kbits/s speed=0.013x elapsed=0:06:17.74    \nframe=  296 fps=0.8 q=40.0 size=    1536KiB time=00:00:04.90 bitrate=2568.0kbits/s speed=0.013x elapsed=0:06:18.31    \nframe=  296 fps=0.8 q=40.0 size=    1536KiB time=00:00:04.90 bitrate=2568.0kbits/s speed=0.0129x elapsed=0:06:18.90    \nframe=  297 fps=0.8 q=36.6 size=    1536KiB time=00:00:04.91 bitrate=2559.3kbits/s speed=0.013x elapsed=0:06:19.43    \nframe=  297 fps=0.8 q=36.6 size=    1536KiB time=00:00:04.91 bitrate=2559.3kbits/s speed=0.0129x elapsed=0:06:19.96    \nframe=  297 fps=0.8 q=36.6 size=    1536KiB time=00:00:04.91 bitrate=2559.3kbits/s speed=0.0129x elapsed=0:06:20.54    \nframe=  299 fps=0.8 q=39.7 size=    1536KiB time=00:00:04.93 bitrate=2550.7kbits/s speed=0.0129x elapsed=0:06:21.16    \n[mp4 @ 0000015de1d3aa40] Starting second pass: moving the moov atom to the beginning of the file\n[out#0/mp4 @ 0000015de262e040] video:1553KiB audio:0KiB subtitle:0KiB other streams:0KiB global headers:2KiB muxing overhead: 0.451970%\nframe=  300 fps=0.8 q=39.8 Lsize=    1560KiB time=00:00:04.96 bitrate=2572.5kbits/s speed=0.013x elapsed=0:06:21.82    \nx265 [info]: frame I:      2, Avg QP:35.74  kb/s: 7086.00 \nx265 [info]: frame P:     76, Avg QP:34.35  kb/s: 4848.59 \nx265 [info]: frame B:    222, Avg QP:38.81  kb/s: 1711.37 \nx265 [info]: Weighted P-Frames: Y:0.0% UV:0.0%\n\nencoded 300 frames in 378.72s (0.79 fps), 2541.96 kb/s, Avg QP:37.66\n",
  "seconds": 383.83518719673157,
  "probe_out": {}
}